<?xml version="1.0" encoding="utf-8" standalone="no"?>
<!DOCTYPE svg PUBLIC "-//W3C//DTD SVG 1.1//EN"
  "http://www.w3.org/Graphics/SVG/1.1/DTD/svg11.dtd">
<svg xmlns:xlink="http://www.w3.org/1999/xlink" width="460.8pt" height="345.6pt" viewBox="0 0 460.8 345.6" xmlns="http://www.w3.org/2000/svg" version="1.1">
 <metadata>
  <rdf:RDF xmlns:dc="http://purl.org/dc/elements/1.1/" xmlns:cc="http://creativecommons.org/ns#" xmlns:rdf="http://www.w3.org/1999/02/22-rdf-syntax-ns#">
   <cc:Work>
    <dc:type rdf:resource="http://purl.org/dc/dcmitype/StillImage"/>
    <dc:date>2024-06-14T21:23:39.152875</dc:date>
    <dc:format>image/svg+xml</dc:format>
    <dc:creator>
     <cc:Agent>
      <dc:title>Matplotlib v3.8.3, https://matplotlib.org/</dc:title>
     </cc:Agent>
    </dc:creator>
   </cc:Work>
  </rdf:RDF>
 </metadata>
 <defs>
  <style type="text/css">*{stroke-linejoin: round; stroke-linecap: butt}</style>
 </defs>
 <g id="figure_1">
  <g id="patch_1">
   <path d="M 0 345.6 
L 460.8 345.6 
L 460.8 0 
L 0 0 
z
" style="fill: #ffffff"/>
  </g>
  <g id="axes_1">
   <g id="patch_2">
    <path d="M 57.6 307.584 
L 414.72 307.584 
L 414.72 41.472 
L 57.6 41.472 
z
" style="fill: #ffffff"/>
   </g>
   <g id="matplotlib.axis_1">
    <g id="xtick_1">
     <g id="line2d_1">
      <defs>
       <path id="me9821228b9" d="M 0 0 
L 0 3.5 
" style="stroke: #000000; stroke-width: 0.8"/>
      </defs>
      <g>
       <use xlink:href="#me9821228b9" x="72.201297" y="307.584" style="stroke: #000000; stroke-width: 0.8"/>
      </g>
     </g>
     <g id="text_1">
      <!-- 0 -->
      <g transform="translate(69.020047 322.182437) scale(0.1 -0.1)">
       <defs>
        <path id="DejaVuSans-30" d="M 2034 4250 
Q 1547 4250 1301 3770 
Q 1056 3291 1056 2328 
Q 1056 1369 1301 889 
Q 1547 409 2034 409 
Q 2525 409 2770 889 
Q 3016 1369 3016 2328 
Q 3016 3291 2770 3770 
Q 2525 4250 2034 4250 
z
M 2034 4750 
Q 2819 4750 3233 4129 
Q 3647 3509 3647 2328 
Q 3647 1150 3233 529 
Q 2819 -91 2034 -91 
Q 1250 -91 836 529 
Q 422 1150 422 2328 
Q 422 3509 836 4129 
Q 1250 4750 2034 4750 
z
" transform="scale(0.015625)"/>
       </defs>
       <use xlink:href="#DejaVuSans-30"/>
      </g>
     </g>
    </g>
    <g id="xtick_2">
     <g id="line2d_2">
      <g>
       <use xlink:href="#me9821228b9" x="112.987044" y="307.584" style="stroke: #000000; stroke-width: 0.8"/>
      </g>
     </g>
     <g id="text_2">
      <!-- 25000 -->
      <g transform="translate(97.080794 322.182437) scale(0.1 -0.1)">
       <defs>
        <path id="DejaVuSans-32" d="M 1228 531 
L 3431 531 
L 3431 0 
L 469 0 
L 469 531 
Q 828 903 1448 1529 
Q 2069 2156 2228 2338 
Q 2531 2678 2651 2914 
Q 2772 3150 2772 3378 
Q 2772 3750 2511 3984 
Q 2250 4219 1831 4219 
Q 1534 4219 1204 4116 
Q 875 4013 500 3803 
L 500 4441 
Q 881 4594 1212 4672 
Q 1544 4750 1819 4750 
Q 2544 4750 2975 4387 
Q 3406 4025 3406 3419 
Q 3406 3131 3298 2873 
Q 3191 2616 2906 2266 
Q 2828 2175 2409 1742 
Q 1991 1309 1228 531 
z
" transform="scale(0.015625)"/>
        <path id="DejaVuSans-35" d="M 691 4666 
L 3169 4666 
L 3169 4134 
L 1269 4134 
L 1269 2991 
Q 1406 3038 1543 3061 
Q 1681 3084 1819 3084 
Q 2600 3084 3056 2656 
Q 3513 2228 3513 1497 
Q 3513 744 3044 326 
Q 2575 -91 1722 -91 
Q 1428 -91 1123 -41 
Q 819 9 494 109 
L 494 744 
Q 775 591 1075 516 
Q 1375 441 1709 441 
Q 2250 441 2565 725 
Q 2881 1009 2881 1497 
Q 2881 1984 2565 2268 
Q 2250 2553 1709 2553 
Q 1456 2553 1204 2497 
Q 953 2441 691 2322 
L 691 4666 
z
" transform="scale(0.015625)"/>
       </defs>
       <use xlink:href="#DejaVuSans-32"/>
       <use xlink:href="#DejaVuSans-35" x="63.623047"/>
       <use xlink:href="#DejaVuSans-30" x="127.246094"/>
       <use xlink:href="#DejaVuSans-30" x="190.869141"/>
       <use xlink:href="#DejaVuSans-30" x="254.492188"/>
      </g>
     </g>
    </g>
    <g id="xtick_3">
     <g id="line2d_3">
      <g>
       <use xlink:href="#me9821228b9" x="153.772791" y="307.584" style="stroke: #000000; stroke-width: 0.8"/>
      </g>
     </g>
     <g id="text_3">
      <!-- 50000 -->
      <g transform="translate(137.866541 322.182437) scale(0.1 -0.1)">
       <use xlink:href="#DejaVuSans-35"/>
       <use xlink:href="#DejaVuSans-30" x="63.623047"/>
       <use xlink:href="#DejaVuSans-30" x="127.246094"/>
       <use xlink:href="#DejaVuSans-30" x="190.869141"/>
       <use xlink:href="#DejaVuSans-30" x="254.492188"/>
      </g>
     </g>
    </g>
    <g id="xtick_4">
     <g id="line2d_4">
      <g>
       <use xlink:href="#me9821228b9" x="194.558538" y="307.584" style="stroke: #000000; stroke-width: 0.8"/>
      </g>
     </g>
     <g id="text_4">
      <!-- 75000 -->
      <g transform="translate(178.652288 322.182437) scale(0.1 -0.1)">
       <defs>
        <path id="DejaVuSans-37" d="M 525 4666 
L 3525 4666 
L 3525 4397 
L 1831 0 
L 1172 0 
L 2766 4134 
L 525 4134 
L 525 4666 
z
" transform="scale(0.015625)"/>
       </defs>
       <use xlink:href="#DejaVuSans-37"/>
       <use xlink:href="#DejaVuSans-35" x="63.623047"/>
       <use xlink:href="#DejaVuSans-30" x="127.246094"/>
       <use xlink:href="#DejaVuSans-30" x="190.869141"/>
       <use xlink:href="#DejaVuSans-30" x="254.492188"/>
      </g>
     </g>
    </g>
    <g id="xtick_5">
     <g id="line2d_5">
      <g>
       <use xlink:href="#me9821228b9" x="235.344285" y="307.584" style="stroke: #000000; stroke-width: 0.8"/>
      </g>
     </g>
     <g id="text_5">
      <!-- 100000 -->
      <g transform="translate(216.256785 322.182437) scale(0.1 -0.1)">
       <defs>
        <path id="DejaVuSans-31" d="M 794 531 
L 1825 531 
L 1825 4091 
L 703 3866 
L 703 4441 
L 1819 4666 
L 2450 4666 
L 2450 531 
L 3481 531 
L 3481 0 
L 794 0 
L 794 531 
z
" transform="scale(0.015625)"/>
       </defs>
       <use xlink:href="#DejaVuSans-31"/>
       <use xlink:href="#DejaVuSans-30" x="63.623047"/>
       <use xlink:href="#DejaVuSans-30" x="127.246094"/>
       <use xlink:href="#DejaVuSans-30" x="190.869141"/>
       <use xlink:href="#DejaVuSans-30" x="254.492188"/>
       <use xlink:href="#DejaVuSans-30" x="318.115234"/>
      </g>
     </g>
    </g>
    <g id="xtick_6">
     <g id="line2d_6">
      <g>
       <use xlink:href="#me9821228b9" x="276.130032" y="307.584" style="stroke: #000000; stroke-width: 0.8"/>
      </g>
     </g>
     <g id="text_6">
      <!-- 125000 -->
      <g transform="translate(257.042532 322.182437) scale(0.1 -0.1)">
       <use xlink:href="#DejaVuSans-31"/>
       <use xlink:href="#DejaVuSans-32" x="63.623047"/>
       <use xlink:href="#DejaVuSans-35" x="127.246094"/>
       <use xlink:href="#DejaVuSans-30" x="190.869141"/>
       <use xlink:href="#DejaVuSans-30" x="254.492188"/>
       <use xlink:href="#DejaVuSans-30" x="318.115234"/>
      </g>
     </g>
    </g>
    <g id="xtick_7">
     <g id="line2d_7">
      <g>
       <use xlink:href="#me9821228b9" x="316.915779" y="307.584" style="stroke: #000000; stroke-width: 0.8"/>
      </g>
     </g>
     <g id="text_7">
      <!-- 150000 -->
      <g transform="translate(297.828279 322.182437) scale(0.1 -0.1)">
       <use xlink:href="#DejaVuSans-31"/>
       <use xlink:href="#DejaVuSans-35" x="63.623047"/>
       <use xlink:href="#DejaVuSans-30" x="127.246094"/>
       <use xlink:href="#DejaVuSans-30" x="190.869141"/>
       <use xlink:href="#DejaVuSans-30" x="254.492188"/>
       <use xlink:href="#DejaVuSans-30" x="318.115234"/>
      </g>
     </g>
    </g>
    <g id="xtick_8">
     <g id="line2d_8">
      <g>
       <use xlink:href="#me9821228b9" x="357.701526" y="307.584" style="stroke: #000000; stroke-width: 0.8"/>
      </g>
     </g>
     <g id="text_8">
      <!-- 175000 -->
      <g transform="translate(338.614026 322.182437) scale(0.1 -0.1)">
       <use xlink:href="#DejaVuSans-31"/>
       <use xlink:href="#DejaVuSans-37" x="63.623047"/>
       <use xlink:href="#DejaVuSans-35" x="127.246094"/>
       <use xlink:href="#DejaVuSans-30" x="190.869141"/>
       <use xlink:href="#DejaVuSans-30" x="254.492188"/>
       <use xlink:href="#DejaVuSans-30" x="318.115234"/>
      </g>
     </g>
    </g>
    <g id="xtick_9">
     <g id="line2d_9">
      <g>
       <use xlink:href="#me9821228b9" x="398.487273" y="307.584" style="stroke: #000000; stroke-width: 0.8"/>
      </g>
     </g>
     <g id="text_9">
      <!-- 200000 -->
      <g transform="translate(379.399773 322.182437) scale(0.1 -0.1)">
       <use xlink:href="#DejaVuSans-32"/>
       <use xlink:href="#DejaVuSans-30" x="63.623047"/>
       <use xlink:href="#DejaVuSans-30" x="127.246094"/>
       <use xlink:href="#DejaVuSans-30" x="190.869141"/>
       <use xlink:href="#DejaVuSans-30" x="254.492188"/>
       <use xlink:href="#DejaVuSans-30" x="318.115234"/>
      </g>
     </g>
    </g>
    <g id="text_10">
     <!-- Vertices in the input graph -->
     <g transform="translate(169.598281 335.860562) scale(0.1 -0.1)">
      <defs>
       <path id="DejaVuSans-56" d="M 1831 0 
L 50 4666 
L 709 4666 
L 2188 738 
L 3669 4666 
L 4325 4666 
L 2547 0 
L 1831 0 
z
" transform="scale(0.015625)"/>
       <path id="DejaVuSans-65" d="M 3597 1894 
L 3597 1613 
L 953 1613 
Q 991 1019 1311 708 
Q 1631 397 2203 397 
Q 2534 397 2845 478 
Q 3156 559 3463 722 
L 3463 178 
Q 3153 47 2828 -22 
Q 2503 -91 2169 -91 
Q 1331 -91 842 396 
Q 353 884 353 1716 
Q 353 2575 817 3079 
Q 1281 3584 2069 3584 
Q 2775 3584 3186 3129 
Q 3597 2675 3597 1894 
z
M 3022 2063 
Q 3016 2534 2758 2815 
Q 2500 3097 2075 3097 
Q 1594 3097 1305 2825 
Q 1016 2553 972 2059 
L 3022 2063 
z
" transform="scale(0.015625)"/>
       <path id="DejaVuSans-72" d="M 2631 2963 
Q 2534 3019 2420 3045 
Q 2306 3072 2169 3072 
Q 1681 3072 1420 2755 
Q 1159 2438 1159 1844 
L 1159 0 
L 581 0 
L 581 3500 
L 1159 3500 
L 1159 2956 
Q 1341 3275 1631 3429 
Q 1922 3584 2338 3584 
Q 2397 3584 2469 3576 
Q 2541 3569 2628 3553 
L 2631 2963 
z
" transform="scale(0.015625)"/>
       <path id="DejaVuSans-74" d="M 1172 4494 
L 1172 3500 
L 2356 3500 
L 2356 3053 
L 1172 3053 
L 1172 1153 
Q 1172 725 1289 603 
Q 1406 481 1766 481 
L 2356 481 
L 2356 0 
L 1766 0 
Q 1100 0 847 248 
Q 594 497 594 1153 
L 594 3053 
L 172 3053 
L 172 3500 
L 594 3500 
L 594 4494 
L 1172 4494 
z
" transform="scale(0.015625)"/>
       <path id="DejaVuSans-69" d="M 603 3500 
L 1178 3500 
L 1178 0 
L 603 0 
L 603 3500 
z
M 603 4863 
L 1178 4863 
L 1178 4134 
L 603 4134 
L 603 4863 
z
" transform="scale(0.015625)"/>
       <path id="DejaVuSans-63" d="M 3122 3366 
L 3122 2828 
Q 2878 2963 2633 3030 
Q 2388 3097 2138 3097 
Q 1578 3097 1268 2742 
Q 959 2388 959 1747 
Q 959 1106 1268 751 
Q 1578 397 2138 397 
Q 2388 397 2633 464 
Q 2878 531 3122 666 
L 3122 134 
Q 2881 22 2623 -34 
Q 2366 -91 2075 -91 
Q 1284 -91 818 406 
Q 353 903 353 1747 
Q 353 2603 823 3093 
Q 1294 3584 2113 3584 
Q 2378 3584 2631 3529 
Q 2884 3475 3122 3366 
z
" transform="scale(0.015625)"/>
       <path id="DejaVuSans-73" d="M 2834 3397 
L 2834 2853 
Q 2591 2978 2328 3040 
Q 2066 3103 1784 3103 
Q 1356 3103 1142 2972 
Q 928 2841 928 2578 
Q 928 2378 1081 2264 
Q 1234 2150 1697 2047 
L 1894 2003 
Q 2506 1872 2764 1633 
Q 3022 1394 3022 966 
Q 3022 478 2636 193 
Q 2250 -91 1575 -91 
Q 1294 -91 989 -36 
Q 684 19 347 128 
L 347 722 
Q 666 556 975 473 
Q 1284 391 1588 391 
Q 1994 391 2212 530 
Q 2431 669 2431 922 
Q 2431 1156 2273 1281 
Q 2116 1406 1581 1522 
L 1381 1569 
Q 847 1681 609 1914 
Q 372 2147 372 2553 
Q 372 3047 722 3315 
Q 1072 3584 1716 3584 
Q 2034 3584 2315 3537 
Q 2597 3491 2834 3397 
z
" transform="scale(0.015625)"/>
       <path id="DejaVuSans-20" transform="scale(0.015625)"/>
       <path id="DejaVuSans-6e" d="M 3513 2113 
L 3513 0 
L 2938 0 
L 2938 2094 
Q 2938 2591 2744 2837 
Q 2550 3084 2163 3084 
Q 1697 3084 1428 2787 
Q 1159 2491 1159 1978 
L 1159 0 
L 581 0 
L 581 3500 
L 1159 3500 
L 1159 2956 
Q 1366 3272 1645 3428 
Q 1925 3584 2291 3584 
Q 2894 3584 3203 3211 
Q 3513 2838 3513 2113 
z
" transform="scale(0.015625)"/>
       <path id="DejaVuSans-68" d="M 3513 2113 
L 3513 0 
L 2938 0 
L 2938 2094 
Q 2938 2591 2744 2837 
Q 2550 3084 2163 3084 
Q 1697 3084 1428 2787 
Q 1159 2491 1159 1978 
L 1159 0 
L 581 0 
L 581 4863 
L 1159 4863 
L 1159 2956 
Q 1366 3272 1645 3428 
Q 1925 3584 2291 3584 
Q 2894 3584 3203 3211 
Q 3513 2838 3513 2113 
z
" transform="scale(0.015625)"/>
       <path id="DejaVuSans-70" d="M 1159 525 
L 1159 -1331 
L 581 -1331 
L 581 3500 
L 1159 3500 
L 1159 2969 
Q 1341 3281 1617 3432 
Q 1894 3584 2278 3584 
Q 2916 3584 3314 3078 
Q 3713 2572 3713 1747 
Q 3713 922 3314 415 
Q 2916 -91 2278 -91 
Q 1894 -91 1617 61 
Q 1341 213 1159 525 
z
M 3116 1747 
Q 3116 2381 2855 2742 
Q 2594 3103 2138 3103 
Q 1681 3103 1420 2742 
Q 1159 2381 1159 1747 
Q 1159 1113 1420 752 
Q 1681 391 2138 391 
Q 2594 391 2855 752 
Q 3116 1113 3116 1747 
z
" transform="scale(0.015625)"/>
       <path id="DejaVuSans-75" d="M 544 1381 
L 544 3500 
L 1119 3500 
L 1119 1403 
Q 1119 906 1312 657 
Q 1506 409 1894 409 
Q 2359 409 2629 706 
Q 2900 1003 2900 1516 
L 2900 3500 
L 3475 3500 
L 3475 0 
L 2900 0 
L 2900 538 
Q 2691 219 2414 64 
Q 2138 -91 1772 -91 
Q 1169 -91 856 284 
Q 544 659 544 1381 
z
M 1991 3584 
L 1991 3584 
z
" transform="scale(0.015625)"/>
       <path id="DejaVuSans-67" d="M 2906 1791 
Q 2906 2416 2648 2759 
Q 2391 3103 1925 3103 
Q 1463 3103 1205 2759 
Q 947 2416 947 1791 
Q 947 1169 1205 825 
Q 1463 481 1925 481 
Q 2391 481 2648 825 
Q 2906 1169 2906 1791 
z
M 3481 434 
Q 3481 -459 3084 -895 
Q 2688 -1331 1869 -1331 
Q 1566 -1331 1297 -1286 
Q 1028 -1241 775 -1147 
L 775 -588 
Q 1028 -725 1275 -790 
Q 1522 -856 1778 -856 
Q 2344 -856 2625 -561 
Q 2906 -266 2906 331 
L 2906 616 
Q 2728 306 2450 153 
Q 2172 0 1784 0 
Q 1141 0 747 490 
Q 353 981 353 1791 
Q 353 2603 747 3093 
Q 1141 3584 1784 3584 
Q 2172 3584 2450 3431 
Q 2728 3278 2906 2969 
L 2906 3500 
L 3481 3500 
L 3481 434 
z
" transform="scale(0.015625)"/>
       <path id="DejaVuSans-61" d="M 2194 1759 
Q 1497 1759 1228 1600 
Q 959 1441 959 1056 
Q 959 750 1161 570 
Q 1363 391 1709 391 
Q 2188 391 2477 730 
Q 2766 1069 2766 1631 
L 2766 1759 
L 2194 1759 
z
M 3341 1997 
L 3341 0 
L 2766 0 
L 2766 531 
Q 2569 213 2275 61 
Q 1981 -91 1556 -91 
Q 1019 -91 701 211 
Q 384 513 384 1019 
Q 384 1609 779 1909 
Q 1175 2209 1959 2209 
L 2766 2209 
L 2766 2266 
Q 2766 2663 2505 2880 
Q 2244 3097 1772 3097 
Q 1472 3097 1187 3025 
Q 903 2953 641 2809 
L 641 3341 
Q 956 3463 1253 3523 
Q 1550 3584 1831 3584 
Q 2591 3584 2966 3190 
Q 3341 2797 3341 1997 
z
" transform="scale(0.015625)"/>
      </defs>
      <use xlink:href="#DejaVuSans-56"/>
      <use xlink:href="#DejaVuSans-65" x="60.658203"/>
      <use xlink:href="#DejaVuSans-72" x="122.181641"/>
      <use xlink:href="#DejaVuSans-74" x="163.294922"/>
      <use xlink:href="#DejaVuSans-69" x="202.503906"/>
      <use xlink:href="#DejaVuSans-63" x="230.287109"/>
      <use xlink:href="#DejaVuSans-65" x="285.267578"/>
      <use xlink:href="#DejaVuSans-73" x="346.791016"/>
      <use xlink:href="#DejaVuSans-20" x="398.890625"/>
      <use xlink:href="#DejaVuSans-69" x="430.677734"/>
      <use xlink:href="#DejaVuSans-6e" x="458.460938"/>
      <use xlink:href="#DejaVuSans-20" x="521.839844"/>
      <use xlink:href="#DejaVuSans-74" x="553.626953"/>
      <use xlink:href="#DejaVuSans-68" x="592.835938"/>
      <use xlink:href="#DejaVuSans-65" x="656.214844"/>
      <use xlink:href="#DejaVuSans-20" x="717.738281"/>
      <use xlink:href="#DejaVuSans-69" x="749.525391"/>
      <use xlink:href="#DejaVuSans-6e" x="777.308594"/>
      <use xlink:href="#DejaVuSans-70" x="840.6875"/>
      <use xlink:href="#DejaVuSans-75" x="904.164062"/>
      <use xlink:href="#DejaVuSans-74" x="967.542969"/>
      <use xlink:href="#DejaVuSans-20" x="1006.751953"/>
      <use xlink:href="#DejaVuSans-67" x="1038.539062"/>
      <use xlink:href="#DejaVuSans-72" x="1102.015625"/>
      <use xlink:href="#DejaVuSans-61" x="1143.128906"/>
      <use xlink:href="#DejaVuSans-70" x="1204.408203"/>
      <use xlink:href="#DejaVuSans-68" x="1267.884766"/>
     </g>
    </g>
   </g>
   <g id="matplotlib.axis_2">
    <g id="ytick_1">
     <g id="line2d_10">
      <defs>
       <path id="meb899d7744" d="M 0 0 
L -3.5 0 
" style="stroke: #000000; stroke-width: 0.8"/>
      </defs>
      <g>
       <use xlink:href="#meb899d7744" x="57.6" y="295.806917" style="stroke: #000000; stroke-width: 0.8"/>
      </g>
     </g>
     <g id="text_11">
      <!-- 0 -->
      <g transform="translate(44.2375 299.606136) scale(0.1 -0.1)">
       <use xlink:href="#DejaVuSans-30"/>
      </g>
     </g>
    </g>
    <g id="ytick_2">
     <g id="line2d_11">
      <g>
       <use xlink:href="#meb899d7744" x="57.6" y="248.975293" style="stroke: #000000; stroke-width: 0.8"/>
      </g>
     </g>
     <g id="text_12">
      <!-- 20 -->
      <g transform="translate(37.875 252.774512) scale(0.1 -0.1)">
       <use xlink:href="#DejaVuSans-32"/>
       <use xlink:href="#DejaVuSans-30" x="63.623047"/>
      </g>
     </g>
    </g>
    <g id="ytick_3">
     <g id="line2d_12">
      <g>
       <use xlink:href="#meb899d7744" x="57.6" y="202.143669" style="stroke: #000000; stroke-width: 0.8"/>
      </g>
     </g>
     <g id="text_13">
      <!-- 40 -->
      <g transform="translate(37.875 205.942887) scale(0.1 -0.1)">
       <defs>
        <path id="DejaVuSans-34" d="M 2419 4116 
L 825 1625 
L 2419 1625 
L 2419 4116 
z
M 2253 4666 
L 3047 4666 
L 3047 1625 
L 3713 1625 
L 3713 1100 
L 3047 1100 
L 3047 0 
L 2419 0 
L 2419 1100 
L 313 1100 
L 313 1709 
L 2253 4666 
z
" transform="scale(0.015625)"/>
       </defs>
       <use xlink:href="#DejaVuSans-34"/>
       <use xlink:href="#DejaVuSans-30" x="63.623047"/>
      </g>
     </g>
    </g>
    <g id="ytick_4">
     <g id="line2d_13">
      <g>
       <use xlink:href="#meb899d7744" x="57.6" y="155.312044" style="stroke: #000000; stroke-width: 0.8"/>
      </g>
     </g>
     <g id="text_14">
      <!-- 60 -->
      <g transform="translate(37.875 159.111263) scale(0.1 -0.1)">
       <defs>
        <path id="DejaVuSans-36" d="M 2113 2584 
Q 1688 2584 1439 2293 
Q 1191 2003 1191 1497 
Q 1191 994 1439 701 
Q 1688 409 2113 409 
Q 2538 409 2786 701 
Q 3034 994 3034 1497 
Q 3034 2003 2786 2293 
Q 2538 2584 2113 2584 
z
M 3366 4563 
L 3366 3988 
Q 3128 4100 2886 4159 
Q 2644 4219 2406 4219 
Q 1781 4219 1451 3797 
Q 1122 3375 1075 2522 
Q 1259 2794 1537 2939 
Q 1816 3084 2150 3084 
Q 2853 3084 3261 2657 
Q 3669 2231 3669 1497 
Q 3669 778 3244 343 
Q 2819 -91 2113 -91 
Q 1303 -91 875 529 
Q 447 1150 447 2328 
Q 447 3434 972 4092 
Q 1497 4750 2381 4750 
Q 2619 4750 2861 4703 
Q 3103 4656 3366 4563 
z
" transform="scale(0.015625)"/>
       </defs>
       <use xlink:href="#DejaVuSans-36"/>
       <use xlink:href="#DejaVuSans-30" x="63.623047"/>
      </g>
     </g>
    </g>
    <g id="ytick_5">
     <g id="line2d_14">
      <g>
       <use xlink:href="#meb899d7744" x="57.6" y="108.48042" style="stroke: #000000; stroke-width: 0.8"/>
      </g>
     </g>
     <g id="text_15">
      <!-- 80 -->
      <g transform="translate(37.875 112.279639) scale(0.1 -0.1)">
       <defs>
        <path id="DejaVuSans-38" d="M 2034 2216 
Q 1584 2216 1326 1975 
Q 1069 1734 1069 1313 
Q 1069 891 1326 650 
Q 1584 409 2034 409 
Q 2484 409 2743 651 
Q 3003 894 3003 1313 
Q 3003 1734 2745 1975 
Q 2488 2216 2034 2216 
z
M 1403 2484 
Q 997 2584 770 2862 
Q 544 3141 544 3541 
Q 544 4100 942 4425 
Q 1341 4750 2034 4750 
Q 2731 4750 3128 4425 
Q 3525 4100 3525 3541 
Q 3525 3141 3298 2862 
Q 3072 2584 2669 2484 
Q 3125 2378 3379 2068 
Q 3634 1759 3634 1313 
Q 3634 634 3220 271 
Q 2806 -91 2034 -91 
Q 1263 -91 848 271 
Q 434 634 434 1313 
Q 434 1759 690 2068 
Q 947 2378 1403 2484 
z
M 1172 3481 
Q 1172 3119 1398 2916 
Q 1625 2713 2034 2713 
Q 2441 2713 2670 2916 
Q 2900 3119 2900 3481 
Q 2900 3844 2670 4047 
Q 2441 4250 2034 4250 
Q 1625 4250 1398 4047 
Q 1172 3844 1172 3481 
z
" transform="scale(0.015625)"/>
       </defs>
       <use xlink:href="#DejaVuSans-38"/>
       <use xlink:href="#DejaVuSans-30" x="63.623047"/>
      </g>
     </g>
    </g>
    <g id="ytick_6">
     <g id="line2d_15">
      <g>
       <use xlink:href="#meb899d7744" x="57.6" y="61.648796" style="stroke: #000000; stroke-width: 0.8"/>
      </g>
     </g>
     <g id="text_16">
      <!-- 100 -->
      <g transform="translate(31.5125 65.448015) scale(0.1 -0.1)">
       <use xlink:href="#DejaVuSans-31"/>
       <use xlink:href="#DejaVuSans-30" x="63.623047"/>
       <use xlink:href="#DejaVuSans-30" x="127.246094"/>
      </g>
     </g>
    </g>
    <g id="text_17">
     <!-- Median time over 10 runs (ms) -->
     <g transform="translate(25.432812 251.843625) rotate(-90) scale(0.1 -0.1)">
      <defs>
       <path id="DejaVuSans-4d" d="M 628 4666 
L 1569 4666 
L 2759 1491 
L 3956 4666 
L 4897 4666 
L 4897 0 
L 4281 0 
L 4281 4097 
L 3078 897 
L 2444 897 
L 1241 4097 
L 1241 0 
L 628 0 
L 628 4666 
z
" transform="scale(0.015625)"/>
       <path id="DejaVuSans-64" d="M 2906 2969 
L 2906 4863 
L 3481 4863 
L 3481 0 
L 2906 0 
L 2906 525 
Q 2725 213 2448 61 
Q 2172 -91 1784 -91 
Q 1150 -91 751 415 
Q 353 922 353 1747 
Q 353 2572 751 3078 
Q 1150 3584 1784 3584 
Q 2172 3584 2448 3432 
Q 2725 3281 2906 2969 
z
M 947 1747 
Q 947 1113 1208 752 
Q 1469 391 1925 391 
Q 2381 391 2643 752 
Q 2906 1113 2906 1747 
Q 2906 2381 2643 2742 
Q 2381 3103 1925 3103 
Q 1469 3103 1208 2742 
Q 947 2381 947 1747 
z
" transform="scale(0.015625)"/>
       <path id="DejaVuSans-6d" d="M 3328 2828 
Q 3544 3216 3844 3400 
Q 4144 3584 4550 3584 
Q 5097 3584 5394 3201 
Q 5691 2819 5691 2113 
L 5691 0 
L 5113 0 
L 5113 2094 
Q 5113 2597 4934 2840 
Q 4756 3084 4391 3084 
Q 3944 3084 3684 2787 
Q 3425 2491 3425 1978 
L 3425 0 
L 2847 0 
L 2847 2094 
Q 2847 2600 2669 2842 
Q 2491 3084 2119 3084 
Q 1678 3084 1418 2786 
Q 1159 2488 1159 1978 
L 1159 0 
L 581 0 
L 581 3500 
L 1159 3500 
L 1159 2956 
Q 1356 3278 1631 3431 
Q 1906 3584 2284 3584 
Q 2666 3584 2933 3390 
Q 3200 3197 3328 2828 
z
" transform="scale(0.015625)"/>
       <path id="DejaVuSans-6f" d="M 1959 3097 
Q 1497 3097 1228 2736 
Q 959 2375 959 1747 
Q 959 1119 1226 758 
Q 1494 397 1959 397 
Q 2419 397 2687 759 
Q 2956 1122 2956 1747 
Q 2956 2369 2687 2733 
Q 2419 3097 1959 3097 
z
M 1959 3584 
Q 2709 3584 3137 3096 
Q 3566 2609 3566 1747 
Q 3566 888 3137 398 
Q 2709 -91 1959 -91 
Q 1206 -91 779 398 
Q 353 888 353 1747 
Q 353 2609 779 3096 
Q 1206 3584 1959 3584 
z
" transform="scale(0.015625)"/>
       <path id="DejaVuSans-76" d="M 191 3500 
L 800 3500 
L 1894 563 
L 2988 3500 
L 3597 3500 
L 2284 0 
L 1503 0 
L 191 3500 
z
" transform="scale(0.015625)"/>
       <path id="DejaVuSans-28" d="M 1984 4856 
Q 1566 4138 1362 3434 
Q 1159 2731 1159 2009 
Q 1159 1288 1364 580 
Q 1569 -128 1984 -844 
L 1484 -844 
Q 1016 -109 783 600 
Q 550 1309 550 2009 
Q 550 2706 781 3412 
Q 1013 4119 1484 4856 
L 1984 4856 
z
" transform="scale(0.015625)"/>
       <path id="DejaVuSans-29" d="M 513 4856 
L 1013 4856 
Q 1481 4119 1714 3412 
Q 1947 2706 1947 2009 
Q 1947 1309 1714 600 
Q 1481 -109 1013 -844 
L 513 -844 
Q 928 -128 1133 580 
Q 1338 1288 1338 2009 
Q 1338 2731 1133 3434 
Q 928 4138 513 4856 
z
" transform="scale(0.015625)"/>
      </defs>
      <use xlink:href="#DejaVuSans-4d"/>
      <use xlink:href="#DejaVuSans-65" x="86.279297"/>
      <use xlink:href="#DejaVuSans-64" x="147.802734"/>
      <use xlink:href="#DejaVuSans-69" x="211.279297"/>
      <use xlink:href="#DejaVuSans-61" x="239.0625"/>
      <use xlink:href="#DejaVuSans-6e" x="300.341797"/>
      <use xlink:href="#DejaVuSans-20" x="363.720703"/>
      <use xlink:href="#DejaVuSans-74" x="395.507812"/>
      <use xlink:href="#DejaVuSans-69" x="434.716797"/>
      <use xlink:href="#DejaVuSans-6d" x="462.5"/>
      <use xlink:href="#DejaVuSans-65" x="559.912109"/>
      <use xlink:href="#DejaVuSans-20" x="621.435547"/>
      <use xlink:href="#DejaVuSans-6f" x="653.222656"/>
      <use xlink:href="#DejaVuSans-76" x="714.404297"/>
      <use xlink:href="#DejaVuSans-65" x="773.583984"/>
      <use xlink:href="#DejaVuSans-72" x="835.107422"/>
      <use xlink:href="#DejaVuSans-20" x="876.220703"/>
      <use xlink:href="#DejaVuSans-31" x="908.007812"/>
      <use xlink:href="#DejaVuSans-30" x="971.630859"/>
      <use xlink:href="#DejaVuSans-20" x="1035.253906"/>
      <use xlink:href="#DejaVuSans-72" x="1067.041016"/>
      <use xlink:href="#DejaVuSans-75" x="1108.154297"/>
      <use xlink:href="#DejaVuSans-6e" x="1171.533203"/>
      <use xlink:href="#DejaVuSans-73" x="1234.912109"/>
      <use xlink:href="#DejaVuSans-20" x="1287.011719"/>
      <use xlink:href="#DejaVuSans-28" x="1318.798828"/>
      <use xlink:href="#DejaVuSans-6d" x="1357.8125"/>
      <use xlink:href="#DejaVuSans-73" x="1455.224609"/>
      <use xlink:href="#DejaVuSans-29" x="1507.324219"/>
     </g>
    </g>
   </g>
   <g id="line2d_16">
    <defs>
     <path id="mf95c16d186" d="M 0 1.5 
C 0.397805 1.5 0.77937 1.341951 1.06066 1.06066 
C 1.341951 0.77937 1.5 0.397805 1.5 0 
C 1.5 -0.397805 1.341951 -0.77937 1.06066 -1.06066 
C 0.77937 -1.341951 0.397805 -1.5 0 -1.5 
C -0.397805 -1.5 -0.77937 -1.341951 -1.06066 -1.06066 
C -1.341951 -0.77937 -1.5 -0.397805 -1.5 0 
C -1.5 0.397805 -1.341951 0.77937 -1.06066 1.06066 
C -0.77937 1.341951 -0.397805 1.5 0 1.5 
z
" style="stroke: #1f77b4"/>
    </defs>
    <g clip-path="url(#pd033a38fae)">
     <use xlink:href="#mf95c16d186" x="73.832727" y="295.488" style="fill: #1f77b4; stroke: #1f77b4"/>
     <use xlink:href="#mf95c16d186" x="75.464157" y="295.098322" style="fill: #1f77b4; stroke: #1f77b4"/>
     <use xlink:href="#mf95c16d186" x="77.095587" y="294.625153" style="fill: #1f77b4; stroke: #1f77b4"/>
     <use xlink:href="#mf95c16d186" x="78.727017" y="294.129828" style="fill: #1f77b4; stroke: #1f77b4"/>
     <use xlink:href="#mf95c16d186" x="80.358447" y="293.541973" style="fill: #1f77b4; stroke: #1f77b4"/>
     <use xlink:href="#mf95c16d186" x="81.989877" y="293.163756" style="fill: #1f77b4; stroke: #1f77b4"/>
     <use xlink:href="#mf95c16d186" x="83.621307" y="292.598703" style="fill: #1f77b4; stroke: #1f77b4"/>
     <use xlink:href="#mf95c16d186" x="85.252736" y="291.867725" style="fill: #1f77b4; stroke: #1f77b4"/>
     <use xlink:href="#mf95c16d186" x="86.884166" y="291.368164" style="fill: #1f77b4; stroke: #1f77b4"/>
     <use xlink:href="#mf95c16d186" x="88.515596" y="291.038069" style="fill: #1f77b4; stroke: #1f77b4"/>
     <use xlink:href="#mf95c16d186" x="90.147026" y="290.512914" style="fill: #1f77b4; stroke: #1f77b4"/>
     <use xlink:href="#mf95c16d186" x="91.778456" y="289.91038" style="fill: #1f77b4; stroke: #1f77b4"/>
     <use xlink:href="#mf95c16d186" x="93.409886" y="289.581975" style="fill: #1f77b4; stroke: #1f77b4"/>
     <use xlink:href="#mf95c16d186" x="95.041316" y="288.872174" style="fill: #1f77b4; stroke: #1f77b4"/>
     <use xlink:href="#mf95c16d186" x="96.672746" y="288.028789" style="fill: #1f77b4; stroke: #1f77b4"/>
     <use xlink:href="#mf95c16d186" x="98.304175" y="287.783702" style="fill: #1f77b4; stroke: #1f77b4"/>
     <use xlink:href="#mf95c16d186" x="99.935605" y="287.189832" style="fill: #1f77b4; stroke: #1f77b4"/>
     <use xlink:href="#mf95c16d186" x="101.567035" y="286.169153" style="fill: #1f77b4; stroke: #1f77b4"/>
     <use xlink:href="#mf95c16d186" x="103.198465" y="285.367737" style="fill: #1f77b4; stroke: #1f77b4"/>
     <use xlink:href="#mf95c16d186" x="104.829895" y="284.861575" style="fill: #1f77b4; stroke: #1f77b4"/>
     <use xlink:href="#mf95c16d186" x="106.461325" y="283.734225" style="fill: #1f77b4; stroke: #1f77b4"/>
     <use xlink:href="#mf95c16d186" x="108.092755" y="283.181311" style="fill: #1f77b4; stroke: #1f77b4"/>
     <use xlink:href="#mf95c16d186" x="109.724185" y="282.432926" style="fill: #1f77b4; stroke: #1f77b4"/>
     <use xlink:href="#mf95c16d186" x="111.355614" y="281.676223" style="fill: #1f77b4; stroke: #1f77b4"/>
     <use xlink:href="#mf95c16d186" x="112.987044" y="281.050557" style="fill: #1f77b4; stroke: #1f77b4"/>
     <use xlink:href="#mf95c16d186" x="114.618474" y="279.931678" style="fill: #1f77b4; stroke: #1f77b4"/>
     <use xlink:href="#mf95c16d186" x="116.249904" y="279.452055" style="fill: #1f77b4; stroke: #1f77b4"/>
     <use xlink:href="#mf95c16d186" x="117.881334" y="278.103621" style="fill: #1f77b4; stroke: #1f77b4"/>
     <use xlink:href="#mf95c16d186" x="119.512764" y="277.500311" style="fill: #1f77b4; stroke: #1f77b4"/>
     <use xlink:href="#mf95c16d186" x="121.144194" y="277.577243" style="fill: #1f77b4; stroke: #1f77b4"/>
     <use xlink:href="#mf95c16d186" x="122.775624" y="276.765233" style="fill: #1f77b4; stroke: #1f77b4"/>
     <use xlink:href="#mf95c16d186" x="124.407053" y="275.709612" style="fill: #1f77b4; stroke: #1f77b4"/>
     <use xlink:href="#mf95c16d186" x="126.038483" y="275.349305" style="fill: #1f77b4; stroke: #1f77b4"/>
     <use xlink:href="#mf95c16d186" x="127.669913" y="274.284665" style="fill: #1f77b4; stroke: #1f77b4"/>
     <use xlink:href="#mf95c16d186" x="129.301343" y="273.649899" style="fill: #1f77b4; stroke: #1f77b4"/>
     <use xlink:href="#mf95c16d186" x="130.932773" y="272.449785" style="fill: #1f77b4; stroke: #1f77b4"/>
     <use xlink:href="#mf95c16d186" x="132.564203" y="272.730105" style="fill: #1f77b4; stroke: #1f77b4"/>
     <use xlink:href="#mf95c16d186" x="134.195633" y="272.229249" style="fill: #1f77b4; stroke: #1f77b4"/>
     <use xlink:href="#mf95c16d186" x="135.827063" y="270.028044" style="fill: #1f77b4; stroke: #1f77b4"/>
     <use xlink:href="#mf95c16d186" x="137.458492" y="269.394772" style="fill: #1f77b4; stroke: #1f77b4"/>
     <use xlink:href="#mf95c16d186" x="139.089922" y="268.991253" style="fill: #1f77b4; stroke: #1f77b4"/>
     <use xlink:href="#mf95c16d186" x="140.721352" y="268.498008" style="fill: #1f77b4; stroke: #1f77b4"/>
     <use xlink:href="#mf95c16d186" x="142.352782" y="267.329428" style="fill: #1f77b4; stroke: #1f77b4"/>
     <use xlink:href="#mf95c16d186" x="143.984212" y="266.239848" style="fill: #1f77b4; stroke: #1f77b4"/>
     <use xlink:href="#mf95c16d186" x="145.615642" y="264.210633" style="fill: #1f77b4; stroke: #1f77b4"/>
     <use xlink:href="#mf95c16d186" x="147.247072" y="263.830374" style="fill: #1f77b4; stroke: #1f77b4"/>
     <use xlink:href="#mf95c16d186" x="148.878502" y="262.485745" style="fill: #1f77b4; stroke: #1f77b4"/>
     <use xlink:href="#mf95c16d186" x="150.509931" y="261.724937" style="fill: #1f77b4; stroke: #1f77b4"/>
     <use xlink:href="#mf95c16d186" x="152.141361" y="260.874529" style="fill: #1f77b4; stroke: #1f77b4"/>
     <use xlink:href="#mf95c16d186" x="153.772791" y="259.560837" style="fill: #1f77b4; stroke: #1f77b4"/>
     <use xlink:href="#mf95c16d186" x="155.404221" y="258.188861" style="fill: #1f77b4; stroke: #1f77b4"/>
     <use xlink:href="#mf95c16d186" x="157.035651" y="258.12152" style="fill: #1f77b4; stroke: #1f77b4"/>
     <use xlink:href="#mf95c16d186" x="158.667081" y="256.240844" style="fill: #1f77b4; stroke: #1f77b4"/>
     <use xlink:href="#mf95c16d186" x="160.298511" y="255.22118" style="fill: #1f77b4; stroke: #1f77b4"/>
     <use xlink:href="#mf95c16d186" x="161.929941" y="254.67452" style="fill: #1f77b4; stroke: #1f77b4"/>
     <use xlink:href="#mf95c16d186" x="163.56137" y="253.194178" style="fill: #1f77b4; stroke: #1f77b4"/>
     <use xlink:href="#mf95c16d186" x="165.1928" y="252.422297" style="fill: #1f77b4; stroke: #1f77b4"/>
     <use xlink:href="#mf95c16d186" x="166.82423" y="250.809423" style="fill: #1f77b4; stroke: #1f77b4"/>
     <use xlink:href="#mf95c16d186" x="168.45566" y="250.445298" style="fill: #1f77b4; stroke: #1f77b4"/>
     <use xlink:href="#mf95c16d186" x="170.08709" y="248.52076" style="fill: #1f77b4; stroke: #1f77b4"/>
     <use xlink:href="#mf95c16d186" x="171.71852" y="250.253639" style="fill: #1f77b4; stroke: #1f77b4"/>
     <use xlink:href="#mf95c16d186" x="173.34995" y="248.654119" style="fill: #1f77b4; stroke: #1f77b4"/>
     <use xlink:href="#mf95c16d186" x="174.98138" y="247.930746" style="fill: #1f77b4; stroke: #1f77b4"/>
     <use xlink:href="#mf95c16d186" x="176.61281" y="245.429429" style="fill: #1f77b4; stroke: #1f77b4"/>
     <use xlink:href="#mf95c16d186" x="178.244239" y="244.889716" style="fill: #1f77b4; stroke: #1f77b4"/>
     <use xlink:href="#mf95c16d186" x="179.875669" y="244.276658" style="fill: #1f77b4; stroke: #1f77b4"/>
     <use xlink:href="#mf95c16d186" x="181.507099" y="241.662856" style="fill: #1f77b4; stroke: #1f77b4"/>
     <use xlink:href="#mf95c16d186" x="183.138529" y="241.349794" style="fill: #1f77b4; stroke: #1f77b4"/>
     <use xlink:href="#mf95c16d186" x="184.769959" y="240.48546" style="fill: #1f77b4; stroke: #1f77b4"/>
     <use xlink:href="#mf95c16d186" x="186.401389" y="236.758559" style="fill: #1f77b4; stroke: #1f77b4"/>
     <use xlink:href="#mf95c16d186" x="188.032819" y="237.131902" style="fill: #1f77b4; stroke: #1f77b4"/>
     <use xlink:href="#mf95c16d186" x="189.664249" y="236.111776" style="fill: #1f77b4; stroke: #1f77b4"/>
     <use xlink:href="#mf95c16d186" x="191.295678" y="236.053121" style="fill: #1f77b4; stroke: #1f77b4"/>
     <use xlink:href="#mf95c16d186" x="192.927108" y="234.09393" style="fill: #1f77b4; stroke: #1f77b4"/>
     <use xlink:href="#mf95c16d186" x="194.558538" y="233.430631" style="fill: #1f77b4; stroke: #1f77b4"/>
     <use xlink:href="#mf95c16d186" x="196.189968" y="231.799938" style="fill: #1f77b4; stroke: #1f77b4"/>
     <use xlink:href="#mf95c16d186" x="197.821398" y="232.277231" style="fill: #1f77b4; stroke: #1f77b4"/>
     <use xlink:href="#mf95c16d186" x="199.452828" y="231.105823" style="fill: #1f77b4; stroke: #1f77b4"/>
     <use xlink:href="#mf95c16d186" x="201.084258" y="229.328291" style="fill: #1f77b4; stroke: #1f77b4"/>
     <use xlink:href="#mf95c16d186" x="202.715688" y="228.278619" style="fill: #1f77b4; stroke: #1f77b4"/>
     <use xlink:href="#mf95c16d186" x="204.347117" y="226.551471" style="fill: #1f77b4; stroke: #1f77b4"/>
     <use xlink:href="#mf95c16d186" x="205.978547" y="225.650542" style="fill: #1f77b4; stroke: #1f77b4"/>
     <use xlink:href="#mf95c16d186" x="207.609977" y="225.833467" style="fill: #1f77b4; stroke: #1f77b4"/>
     <use xlink:href="#mf95c16d186" x="209.241407" y="222.722264" style="fill: #1f77b4; stroke: #1f77b4"/>
     <use xlink:href="#mf95c16d186" x="210.872837" y="221.38275" style="fill: #1f77b4; stroke: #1f77b4"/>
     <use xlink:href="#mf95c16d186" x="212.504267" y="219.808114" style="fill: #1f77b4; stroke: #1f77b4"/>
     <use xlink:href="#mf95c16d186" x="214.135697" y="220.936565" style="fill: #1f77b4; stroke: #1f77b4"/>
     <use xlink:href="#mf95c16d186" x="215.767127" y="220.481992" style="fill: #1f77b4; stroke: #1f77b4"/>
     <use xlink:href="#mf95c16d186" x="217.398556" y="217.418485" style="fill: #1f77b4; stroke: #1f77b4"/>
     <use xlink:href="#mf95c16d186" x="219.029986" y="216.769933" style="fill: #1f77b4; stroke: #1f77b4"/>
     <use xlink:href="#mf95c16d186" x="220.661416" y="215.970834" style="fill: #1f77b4; stroke: #1f77b4"/>
     <use xlink:href="#mf95c16d186" x="222.292846" y="214.045023" style="fill: #1f77b4; stroke: #1f77b4"/>
     <use xlink:href="#mf95c16d186" x="223.924276" y="213.906866" style="fill: #1f77b4; stroke: #1f77b4"/>
     <use xlink:href="#mf95c16d186" x="225.555706" y="212.567287" style="fill: #1f77b4; stroke: #1f77b4"/>
     <use xlink:href="#mf95c16d186" x="227.187136" y="212.384415" style="fill: #1f77b4; stroke: #1f77b4"/>
     <use xlink:href="#mf95c16d186" x="228.818566" y="210.498138" style="fill: #1f77b4; stroke: #1f77b4"/>
     <use xlink:href="#mf95c16d186" x="230.449995" y="209.959458" style="fill: #1f77b4; stroke: #1f77b4"/>
     <use xlink:href="#mf95c16d186" x="232.081425" y="207.687292" style="fill: #1f77b4; stroke: #1f77b4"/>
     <use xlink:href="#mf95c16d186" x="233.712855" y="206.24347" style="fill: #1f77b4; stroke: #1f77b4"/>
     <use xlink:href="#mf95c16d186" x="235.344285" y="206.188046" style="fill: #1f77b4; stroke: #1f77b4"/>
     <use xlink:href="#mf95c16d186" x="236.975715" y="204.219129" style="fill: #1f77b4; stroke: #1f77b4"/>
     <use xlink:href="#mf95c16d186" x="238.607145" y="200.244592" style="fill: #1f77b4; stroke: #1f77b4"/>
     <use xlink:href="#mf95c16d186" x="240.238575" y="203.295348" style="fill: #1f77b4; stroke: #1f77b4"/>
     <use xlink:href="#mf95c16d186" x="241.870005" y="200.11573" style="fill: #1f77b4; stroke: #1f77b4"/>
     <use xlink:href="#mf95c16d186" x="243.501434" y="199.797505" style="fill: #1f77b4; stroke: #1f77b4"/>
     <use xlink:href="#mf95c16d186" x="245.132864" y="197.643254" style="fill: #1f77b4; stroke: #1f77b4"/>
     <use xlink:href="#mf95c16d186" x="246.764294" y="193.660176" style="fill: #1f77b4; stroke: #1f77b4"/>
     <use xlink:href="#mf95c16d186" x="248.395724" y="195.033506" style="fill: #1f77b4; stroke: #1f77b4"/>
     <use xlink:href="#mf95c16d186" x="250.027154" y="193.087003" style="fill: #1f77b4; stroke: #1f77b4"/>
     <use xlink:href="#mf95c16d186" x="251.658584" y="192.874412" style="fill: #1f77b4; stroke: #1f77b4"/>
     <use xlink:href="#mf95c16d186" x="253.290014" y="190.581778" style="fill: #1f77b4; stroke: #1f77b4"/>
     <use xlink:href="#mf95c16d186" x="254.921444" y="189.015254" style="fill: #1f77b4; stroke: #1f77b4"/>
     <use xlink:href="#mf95c16d186" x="256.552873" y="187.929254" style="fill: #1f77b4; stroke: #1f77b4"/>
     <use xlink:href="#mf95c16d186" x="258.184303" y="183.807213" style="fill: #1f77b4; stroke: #1f77b4"/>
     <use xlink:href="#mf95c16d186" x="259.815733" y="186.139453" style="fill: #1f77b4; stroke: #1f77b4"/>
     <use xlink:href="#mf95c16d186" x="261.447163" y="185.779743" style="fill: #1f77b4; stroke: #1f77b4"/>
     <use xlink:href="#mf95c16d186" x="263.078593" y="185.915529" style="fill: #1f77b4; stroke: #1f77b4"/>
     <use xlink:href="#mf95c16d186" x="264.710023" y="181.41989" style="fill: #1f77b4; stroke: #1f77b4"/>
     <use xlink:href="#mf95c16d186" x="266.341453" y="180.235603" style="fill: #1f77b4; stroke: #1f77b4"/>
     <use xlink:href="#mf95c16d186" x="267.972883" y="177.027786" style="fill: #1f77b4; stroke: #1f77b4"/>
     <use xlink:href="#mf95c16d186" x="269.604312" y="177.558337" style="fill: #1f77b4; stroke: #1f77b4"/>
     <use xlink:href="#mf95c16d186" x="271.235742" y="177.102468" style="fill: #1f77b4; stroke: #1f77b4"/>
     <use xlink:href="#mf95c16d186" x="272.867172" y="172.39187" style="fill: #1f77b4; stroke: #1f77b4"/>
     <use xlink:href="#mf95c16d186" x="274.498602" y="175.552805" style="fill: #1f77b4; stroke: #1f77b4"/>
     <use xlink:href="#mf95c16d186" x="276.130032" y="171.547245" style="fill: #1f77b4; stroke: #1f77b4"/>
     <use xlink:href="#mf95c16d186" x="277.761462" y="172.569648" style="fill: #1f77b4; stroke: #1f77b4"/>
     <use xlink:href="#mf95c16d186" x="279.392892" y="170.380758" style="fill: #1f77b4; stroke: #1f77b4"/>
     <use xlink:href="#mf95c16d186" x="281.024322" y="172.108685" style="fill: #1f77b4; stroke: #1f77b4"/>
     <use xlink:href="#mf95c16d186" x="282.655751" y="169.978129" style="fill: #1f77b4; stroke: #1f77b4"/>
     <use xlink:href="#mf95c16d186" x="284.287181" y="151.721518" style="fill: #1f77b4; stroke: #1f77b4"/>
     <use xlink:href="#mf95c16d186" x="285.918611" y="166.436763" style="fill: #1f77b4; stroke: #1f77b4"/>
     <use xlink:href="#mf95c16d186" x="287.550041" y="163.444701" style="fill: #1f77b4; stroke: #1f77b4"/>
     <use xlink:href="#mf95c16d186" x="289.181471" y="160.758109" style="fill: #1f77b4; stroke: #1f77b4"/>
     <use xlink:href="#mf95c16d186" x="290.812901" y="160.711551" style="fill: #1f77b4; stroke: #1f77b4"/>
     <use xlink:href="#mf95c16d186" x="292.444331" y="159.241422" style="fill: #1f77b4; stroke: #1f77b4"/>
     <use xlink:href="#mf95c16d186" x="294.075761" y="157.234235" style="fill: #1f77b4; stroke: #1f77b4"/>
     <use xlink:href="#mf95c16d186" x="295.70719" y="165.377838" style="fill: #1f77b4; stroke: #1f77b4"/>
     <use xlink:href="#mf95c16d186" x="297.33862" y="159.144301" style="fill: #1f77b4; stroke: #1f77b4"/>
     <use xlink:href="#mf95c16d186" x="298.97005" y="156.311859" style="fill: #1f77b4; stroke: #1f77b4"/>
     <use xlink:href="#mf95c16d186" x="300.60148" y="155.793843" style="fill: #1f77b4; stroke: #1f77b4"/>
     <use xlink:href="#mf95c16d186" x="302.23291" y="156.442952" style="fill: #1f77b4; stroke: #1f77b4"/>
     <use xlink:href="#mf95c16d186" x="303.86434" y="151.39936" style="fill: #1f77b4; stroke: #1f77b4"/>
     <use xlink:href="#mf95c16d186" x="305.49577" y="151.26523" style="fill: #1f77b4; stroke: #1f77b4"/>
     <use xlink:href="#mf95c16d186" x="307.1272" y="150.964051" style="fill: #1f77b4; stroke: #1f77b4"/>
     <use xlink:href="#mf95c16d186" x="308.75863" y="148.577821" style="fill: #1f77b4; stroke: #1f77b4"/>
     <use xlink:href="#mf95c16d186" x="310.390059" y="151.327446" style="fill: #1f77b4; stroke: #1f77b4"/>
     <use xlink:href="#mf95c16d186" x="312.021489" y="146.271306" style="fill: #1f77b4; stroke: #1f77b4"/>
     <use xlink:href="#mf95c16d186" x="313.652919" y="145.879926" style="fill: #1f77b4; stroke: #1f77b4"/>
     <use xlink:href="#mf95c16d186" x="315.284349" y="146.511341" style="fill: #1f77b4; stroke: #1f77b4"/>
     <use xlink:href="#mf95c16d186" x="316.915779" y="145.42972" style="fill: #1f77b4; stroke: #1f77b4"/>
     <use xlink:href="#mf95c16d186" x="318.547209" y="142.378834" style="fill: #1f77b4; stroke: #1f77b4"/>
     <use xlink:href="#mf95c16d186" x="320.178639" y="141.517301" style="fill: #1f77b4; stroke: #1f77b4"/>
     <use xlink:href="#mf95c16d186" x="321.810069" y="144.585567" style="fill: #1f77b4; stroke: #1f77b4"/>
     <use xlink:href="#mf95c16d186" x="323.441498" y="138.374626" style="fill: #1f77b4; stroke: #1f77b4"/>
     <use xlink:href="#mf95c16d186" x="325.072928" y="139.21327" style="fill: #1f77b4; stroke: #1f77b4"/>
     <use xlink:href="#mf95c16d186" x="326.704358" y="135.294253" style="fill: #1f77b4; stroke: #1f77b4"/>
     <use xlink:href="#mf95c16d186" x="328.335788" y="138.223927" style="fill: #1f77b4; stroke: #1f77b4"/>
     <use xlink:href="#mf95c16d186" x="329.967218" y="134.053332" style="fill: #1f77b4; stroke: #1f77b4"/>
     <use xlink:href="#mf95c16d186" x="331.598648" y="136.318127" style="fill: #1f77b4; stroke: #1f77b4"/>
     <use xlink:href="#mf95c16d186" x="333.230078" y="133.67397" style="fill: #1f77b4; stroke: #1f77b4"/>
     <use xlink:href="#mf95c16d186" x="334.861508" y="125.587408" style="fill: #1f77b4; stroke: #1f77b4"/>
     <use xlink:href="#mf95c16d186" x="336.492937" y="131.952828" style="fill: #1f77b4; stroke: #1f77b4"/>
     <use xlink:href="#mf95c16d186" x="338.124367" y="128.45235" style="fill: #1f77b4; stroke: #1f77b4"/>
     <use xlink:href="#mf95c16d186" x="339.755797" y="128.523057" style="fill: #1f77b4; stroke: #1f77b4"/>
     <use xlink:href="#mf95c16d186" x="341.387227" y="128.828226" style="fill: #1f77b4; stroke: #1f77b4"/>
     <use xlink:href="#mf95c16d186" x="343.018657" y="122.802283" style="fill: #1f77b4; stroke: #1f77b4"/>
     <use xlink:href="#mf95c16d186" x="344.650087" y="125.835925" style="fill: #1f77b4; stroke: #1f77b4"/>
     <use xlink:href="#mf95c16d186" x="346.281517" y="121.483525" style="fill: #1f77b4; stroke: #1f77b4"/>
     <use xlink:href="#mf95c16d186" x="347.912947" y="120.869453" style="fill: #1f77b4; stroke: #1f77b4"/>
     <use xlink:href="#mf95c16d186" x="349.544376" y="121.262344" style="fill: #1f77b4; stroke: #1f77b4"/>
     <use xlink:href="#mf95c16d186" x="351.175806" y="116.461532" style="fill: #1f77b4; stroke: #1f77b4"/>
     <use xlink:href="#mf95c16d186" x="352.807236" y="118.973157" style="fill: #1f77b4; stroke: #1f77b4"/>
     <use xlink:href="#mf95c16d186" x="354.438666" y="118.771059" style="fill: #1f77b4; stroke: #1f77b4"/>
     <use xlink:href="#mf95c16d186" x="356.070096" y="113.820142" style="fill: #1f77b4; stroke: #1f77b4"/>
     <use xlink:href="#mf95c16d186" x="357.701526" y="110.396829" style="fill: #1f77b4; stroke: #1f77b4"/>
     <use xlink:href="#mf95c16d186" x="359.332956" y="112.505347" style="fill: #1f77b4; stroke: #1f77b4"/>
     <use xlink:href="#mf95c16d186" x="360.964386" y="113.405055" style="fill: #1f77b4; stroke: #1f77b4"/>
     <use xlink:href="#mf95c16d186" x="362.595815" y="108.605657" style="fill: #1f77b4; stroke: #1f77b4"/>
     <use xlink:href="#mf95c16d186" x="364.227245" y="106.813761" style="fill: #1f77b4; stroke: #1f77b4"/>
     <use xlink:href="#mf95c16d186" x="365.858675" y="111.641064" style="fill: #1f77b4; stroke: #1f77b4"/>
     <use xlink:href="#mf95c16d186" x="367.490105" y="108.312998" style="fill: #1f77b4; stroke: #1f77b4"/>
     <use xlink:href="#mf95c16d186" x="369.121535" y="98.978164" style="fill: #1f77b4; stroke: #1f77b4"/>
     <use xlink:href="#mf95c16d186" x="370.752965" y="103.347188" style="fill: #1f77b4; stroke: #1f77b4"/>
     <use xlink:href="#mf95c16d186" x="372.384395" y="99.991531" style="fill: #1f77b4; stroke: #1f77b4"/>
     <use xlink:href="#mf95c16d186" x="374.015825" y="100.475676" style="fill: #1f77b4; stroke: #1f77b4"/>
     <use xlink:href="#mf95c16d186" x="375.647254" y="94.718201" style="fill: #1f77b4; stroke: #1f77b4"/>
     <use xlink:href="#mf95c16d186" x="377.278684" y="91.324088" style="fill: #1f77b4; stroke: #1f77b4"/>
     <use xlink:href="#mf95c16d186" x="378.910114" y="92.816979" style="fill: #1f77b4; stroke: #1f77b4"/>
     <use xlink:href="#mf95c16d186" x="380.541544" y="91.547443" style="fill: #1f77b4; stroke: #1f77b4"/>
     <use xlink:href="#mf95c16d186" x="382.172974" y="94.113073" style="fill: #1f77b4; stroke: #1f77b4"/>
     <use xlink:href="#mf95c16d186" x="383.804404" y="91.186213" style="fill: #1f77b4; stroke: #1f77b4"/>
     <use xlink:href="#mf95c16d186" x="385.435834" y="84.773702" style="fill: #1f77b4; stroke: #1f77b4"/>
     <use xlink:href="#mf95c16d186" x="387.067264" y="85.456979" style="fill: #1f77b4; stroke: #1f77b4"/>
     <use xlink:href="#mf95c16d186" x="388.698693" y="85.96483" style="fill: #1f77b4; stroke: #1f77b4"/>
     <use xlink:href="#mf95c16d186" x="390.330123" y="88.201548" style="fill: #1f77b4; stroke: #1f77b4"/>
     <use xlink:href="#mf95c16d186" x="391.961553" y="84.542105" style="fill: #1f77b4; stroke: #1f77b4"/>
     <use xlink:href="#mf95c16d186" x="393.592983" y="82.393994" style="fill: #1f77b4; stroke: #1f77b4"/>
     <use xlink:href="#mf95c16d186" x="395.224413" y="82.622812" style="fill: #1f77b4; stroke: #1f77b4"/>
     <use xlink:href="#mf95c16d186" x="396.855843" y="79.140272" style="fill: #1f77b4; stroke: #1f77b4"/>
     <use xlink:href="#mf95c16d186" x="398.487273" y="75.192036" style="fill: #1f77b4; stroke: #1f77b4"/>
    </g>
   </g>
   <g id="line2d_17">
    <path d="M 73.832727 294.756811 
L 81.989877 289.179423 
L 96.672746 278.820303 
L 117.881334 263.567227 
L 145.615642 243.343992 
L 181.507099 216.884645 
L 223.924276 185.330921 
L 274.498602 147.421011 
L 331.598648 104.336004 
L 396.855843 54.809522 
L 398.487273 53.568 
L 398.487273 53.568 
" clip-path="url(#pd033a38fae)" style="fill: none; stroke: #ff7f0e; stroke-width: 1.5; stroke-linecap: square"/>
   </g>
   <g id="line2d_18">
    <path d="M 85.252736 291.988395 
L 90.147026 290.383809 
L 96.672746 287.964515 
L 101.567035 286.023565 
L 109.724185 282.40081 
L 132.564203 272.081763 
L 143.984212 265.754442 
L 150.509931 261.746168 
L 160.298511 255.515905 
L 165.1928 252.64451 
L 173.34995 247.666593 
L 176.61281 245.401377 
L 181.507099 242.240164 
L 183.138529 241.234156 
L 186.401389 238.912116 
L 194.558538 233.360473 
L 196.189968 232.326051 
L 197.821398 231.141838 
L 204.347117 226.912109 
L 223.924276 213.657728 
L 225.555706 212.618462 
L 227.187136 211.238997 
L 233.712855 206.58637 
L 236.975715 203.969156 
L 243.501434 198.645766 
L 245.132864 197.328564 
L 246.764294 195.832813 
L 250.027154 193.266948 
L 251.658584 192.311677 
L 256.552873 188.00999 
L 258.184303 186.670996 
L 259.815733 185.567149 
L 261.447163 184.057706 
L 263.078593 182.88876 
L 264.710023 181.466948 
L 269.604312 177.969135 
L 271.235742 177.047197 
L 272.867172 174.752668 
L 274.498602 173.463135 
L 277.761462 170.587628 
L 282.655751 166.745327 
L 285.918611 165.080514 
L 287.550041 163.797784 
L 290.812901 161.672444 
L 295.70719 157.749849 
L 297.33862 157.540269 
L 298.97005 156.532981 
L 300.60148 155.388088 
L 307.1272 151.538388 
L 308.75863 149.947686 
L 310.390059 148.977104 
L 315.284349 145.266003 
L 316.915779 144.387641 
L 318.547209 143.240181 
L 321.810069 141.270196 
L 323.441498 139.554194 
L 325.072928 138.599628 
L 333.230078 132.781276 
L 334.861508 131.24114 
L 339.755797 127.621886 
L 341.387227 126.338501 
L 343.018657 125.319683 
L 346.281517 122.268008 
L 347.912947 121.395871 
L 351.175806 118.836239 
L 352.807236 117.388953 
L 354.438666 116.243142 
L 356.070096 115.27719 
L 357.701526 113.486673 
L 359.332956 112.277583 
L 364.227245 108.050389 
L 367.490105 104.476846 
L 369.121535 102.991999 
L 370.752965 101.906415 
L 372.384395 100.48514 
L 374.015825 98.576383 
L 375.647254 97.033137 
L 377.278684 95.643209 
L 380.541544 92.495848 
L 382.172974 91.390237 
L 385.435834 88.618528 
L 387.067264 86.932952 
L 387.067264 86.932952 
" clip-path="url(#pd033a38fae)" style="fill: none; stroke: #2ca02c; stroke-width: 1.5; stroke-linecap: square"/>
   </g>
   <g id="patch_3">
    <path d="M 57.6 307.584 
L 57.6 41.472 
" style="fill: none; stroke: #000000; stroke-width: 0.8; stroke-linejoin: miter; stroke-linecap: square"/>
   </g>
   <g id="patch_4">
    <path d="M 414.72 307.584 
L 414.72 41.472 
" style="fill: none; stroke: #000000; stroke-width: 0.8; stroke-linejoin: miter; stroke-linecap: square"/>
   </g>
   <g id="patch_5">
    <path d="M 57.6 307.584 
L 414.72 307.584 
" style="fill: none; stroke: #000000; stroke-width: 0.8; stroke-linejoin: miter; stroke-linecap: square"/>
   </g>
   <g id="patch_6">
    <path d="M 57.6 41.472 
L 414.72 41.472 
" style="fill: none; stroke: #000000; stroke-width: 0.8; stroke-linejoin: miter; stroke-linecap: square"/>
   </g>
   <g id="text_18">
    <!-- Shortest Odd Walk on Delaunay graphs -->
    <g transform="translate(117.992812 35.472) scale(0.12 -0.12)">
     <defs>
      <path id="DejaVuSans-53" d="M 3425 4513 
L 3425 3897 
Q 3066 4069 2747 4153 
Q 2428 4238 2131 4238 
Q 1616 4238 1336 4038 
Q 1056 3838 1056 3469 
Q 1056 3159 1242 3001 
Q 1428 2844 1947 2747 
L 2328 2669 
Q 3034 2534 3370 2195 
Q 3706 1856 3706 1288 
Q 3706 609 3251 259 
Q 2797 -91 1919 -91 
Q 1588 -91 1214 -16 
Q 841 59 441 206 
L 441 856 
Q 825 641 1194 531 
Q 1563 422 1919 422 
Q 2459 422 2753 634 
Q 3047 847 3047 1241 
Q 3047 1584 2836 1778 
Q 2625 1972 2144 2069 
L 1759 2144 
Q 1053 2284 737 2584 
Q 422 2884 422 3419 
Q 422 4038 858 4394 
Q 1294 4750 2059 4750 
Q 2388 4750 2728 4690 
Q 3069 4631 3425 4513 
z
" transform="scale(0.015625)"/>
      <path id="DejaVuSans-4f" d="M 2522 4238 
Q 1834 4238 1429 3725 
Q 1025 3213 1025 2328 
Q 1025 1447 1429 934 
Q 1834 422 2522 422 
Q 3209 422 3611 934 
Q 4013 1447 4013 2328 
Q 4013 3213 3611 3725 
Q 3209 4238 2522 4238 
z
M 2522 4750 
Q 3503 4750 4090 4092 
Q 4678 3434 4678 2328 
Q 4678 1225 4090 567 
Q 3503 -91 2522 -91 
Q 1538 -91 948 565 
Q 359 1222 359 2328 
Q 359 3434 948 4092 
Q 1538 4750 2522 4750 
z
" transform="scale(0.015625)"/>
      <path id="DejaVuSans-57" d="M 213 4666 
L 850 4666 
L 1831 722 
L 2809 4666 
L 3519 4666 
L 4500 722 
L 5478 4666 
L 6119 4666 
L 4947 0 
L 4153 0 
L 3169 4050 
L 2175 0 
L 1381 0 
L 213 4666 
z
" transform="scale(0.015625)"/>
      <path id="DejaVuSans-6c" d="M 603 4863 
L 1178 4863 
L 1178 0 
L 603 0 
L 603 4863 
z
" transform="scale(0.015625)"/>
      <path id="DejaVuSans-6b" d="M 581 4863 
L 1159 4863 
L 1159 1991 
L 2875 3500 
L 3609 3500 
L 1753 1863 
L 3688 0 
L 2938 0 
L 1159 1709 
L 1159 0 
L 581 0 
L 581 4863 
z
" transform="scale(0.015625)"/>
      <path id="DejaVuSans-44" d="M 1259 4147 
L 1259 519 
L 2022 519 
Q 2988 519 3436 956 
Q 3884 1394 3884 2338 
Q 3884 3275 3436 3711 
Q 2988 4147 2022 4147 
L 1259 4147 
z
M 628 4666 
L 1925 4666 
Q 3281 4666 3915 4102 
Q 4550 3538 4550 2338 
Q 4550 1131 3912 565 
Q 3275 0 1925 0 
L 628 0 
L 628 4666 
z
" transform="scale(0.015625)"/>
      <path id="DejaVuSans-79" d="M 2059 -325 
Q 1816 -950 1584 -1140 
Q 1353 -1331 966 -1331 
L 506 -1331 
L 506 -850 
L 844 -850 
Q 1081 -850 1212 -737 
Q 1344 -625 1503 -206 
L 1606 56 
L 191 3500 
L 800 3500 
L 1894 763 
L 2988 3500 
L 3597 3500 
L 2059 -325 
z
" transform="scale(0.015625)"/>
     </defs>
     <use xlink:href="#DejaVuSans-53"/>
     <use xlink:href="#DejaVuSans-68" x="63.476562"/>
     <use xlink:href="#DejaVuSans-6f" x="126.855469"/>
     <use xlink:href="#DejaVuSans-72" x="188.037109"/>
     <use xlink:href="#DejaVuSans-74" x="229.150391"/>
     <use xlink:href="#DejaVuSans-65" x="268.359375"/>
     <use xlink:href="#DejaVuSans-73" x="329.882812"/>
     <use xlink:href="#DejaVuSans-74" x="381.982422"/>
     <use xlink:href="#DejaVuSans-20" x="421.191406"/>
     <use xlink:href="#DejaVuSans-4f" x="452.978516"/>
     <use xlink:href="#DejaVuSans-64" x="531.689453"/>
     <use xlink:href="#DejaVuSans-64" x="595.166016"/>
     <use xlink:href="#DejaVuSans-20" x="658.642578"/>
     <use xlink:href="#DejaVuSans-57" x="690.429688"/>
     <use xlink:href="#DejaVuSans-61" x="782.931641"/>
     <use xlink:href="#DejaVuSans-6c" x="844.210938"/>
     <use xlink:href="#DejaVuSans-6b" x="871.994141"/>
     <use xlink:href="#DejaVuSans-20" x="929.904297"/>
     <use xlink:href="#DejaVuSans-6f" x="961.691406"/>
     <use xlink:href="#DejaVuSans-6e" x="1022.873047"/>
     <use xlink:href="#DejaVuSans-20" x="1086.251953"/>
     <use xlink:href="#DejaVuSans-44" x="1118.039062"/>
     <use xlink:href="#DejaVuSans-65" x="1195.041016"/>
     <use xlink:href="#DejaVuSans-6c" x="1256.564453"/>
     <use xlink:href="#DejaVuSans-61" x="1284.347656"/>
     <use xlink:href="#DejaVuSans-75" x="1345.626953"/>
     <use xlink:href="#DejaVuSans-6e" x="1409.005859"/>
     <use xlink:href="#DejaVuSans-61" x="1472.384766"/>
     <use xlink:href="#DejaVuSans-79" x="1533.664062"/>
     <use xlink:href="#DejaVuSans-20" x="1592.84375"/>
     <use xlink:href="#DejaVuSans-67" x="1624.630859"/>
     <use xlink:href="#DejaVuSans-72" x="1688.107422"/>
     <use xlink:href="#DejaVuSans-61" x="1729.220703"/>
     <use xlink:href="#DejaVuSans-70" x="1790.5"/>
     <use xlink:href="#DejaVuSans-68" x="1853.976562"/>
     <use xlink:href="#DejaVuSans-73" x="1917.355469"/>
    </g>
   </g>
   <g id="legend_1">
    <g id="patch_7">
     <path d="M 64.6 93.506375 
L 242.128125 93.506375 
Q 244.128125 93.506375 244.128125 91.506375 
L 244.128125 48.472 
Q 244.128125 46.472 242.128125 46.472 
L 64.6 46.472 
Q 62.6 46.472 62.6 48.472 
L 62.6 91.506375 
Q 62.6 93.506375 64.6 93.506375 
z
" style="fill: #ffffff; opacity: 0.8; stroke: #cccccc; stroke-linejoin: miter"/>
    </g>
    <g id="line2d_19">
     <g>
      <use xlink:href="#mf95c16d186" x="76.6" y="54.570438" style="fill: #1f77b4; stroke: #1f77b4"/>
     </g>
    </g>
    <g id="text_19">
     <!-- Shortest Odd Walk -->
     <g transform="translate(94.6 58.070438) scale(0.1 -0.1)">
      <use xlink:href="#DejaVuSans-53"/>
      <use xlink:href="#DejaVuSans-68" x="63.476562"/>
      <use xlink:href="#DejaVuSans-6f" x="126.855469"/>
      <use xlink:href="#DejaVuSans-72" x="188.037109"/>
      <use xlink:href="#DejaVuSans-74" x="229.150391"/>
      <use xlink:href="#DejaVuSans-65" x="268.359375"/>
      <use xlink:href="#DejaVuSans-73" x="329.882812"/>
      <use xlink:href="#DejaVuSans-74" x="381.982422"/>
      <use xlink:href="#DejaVuSans-20" x="421.191406"/>
      <use xlink:href="#DejaVuSans-4f" x="452.978516"/>
      <use xlink:href="#DejaVuSans-64" x="531.689453"/>
      <use xlink:href="#DejaVuSans-64" x="595.166016"/>
      <use xlink:href="#DejaVuSans-20" x="658.642578"/>
      <use xlink:href="#DejaVuSans-57" x="690.429688"/>
      <use xlink:href="#DejaVuSans-61" x="782.931641"/>
      <use xlink:href="#DejaVuSans-6c" x="844.210938"/>
      <use xlink:href="#DejaVuSans-6b" x="871.994141"/>
     </g>
    </g>
    <g id="line2d_20">
     <path d="M 66.6 69.248563 
L 76.6 69.248563 
L 86.6 69.248563 
" style="fill: none; stroke: #ff7f0e; stroke-width: 1.5; stroke-linecap: square"/>
    </g>
    <g id="text_20">
     <!-- m  log2(n) -->
     <g transform="translate(94.6 72.748563) scale(0.1 -0.1)">
      <defs>
       <path id="DejaVuSans-2022" d="M 959 2381 
Q 959 2769 1229 3036 
Q 1500 3303 1894 3303 
Q 2281 3303 2548 3036 
Q 2816 2769 2816 2381 
Q 2816 1991 2547 1722 
Q 2278 1453 1888 1453 
Q 1497 1453 1228 1722 
Q 959 1991 959 2381 
z
" transform="scale(0.015625)"/>
      </defs>
      <use xlink:href="#DejaVuSans-6d"/>
      <use xlink:href="#DejaVuSans-20" x="97.412109"/>
      <use xlink:href="#DejaVuSans-2022" x="129.199219"/>
      <use xlink:href="#DejaVuSans-20" x="188.183594"/>
      <use xlink:href="#DejaVuSans-6c" x="219.970703"/>
      <use xlink:href="#DejaVuSans-6f" x="247.753906"/>
      <use xlink:href="#DejaVuSans-67" x="308.935547"/>
      <use xlink:href="#DejaVuSans-32" x="372.412109"/>
      <use xlink:href="#DejaVuSans-28" x="436.035156"/>
      <use xlink:href="#DejaVuSans-6e" x="475.048828"/>
      <use xlink:href="#DejaVuSans-29" x="538.427734"/>
     </g>
    </g>
    <g id="line2d_21">
     <path d="M 66.6 83.926688 
L 76.6 83.926688 
L 86.6 83.926688 
" style="fill: none; stroke: #2ca02c; stroke-width: 1.5; stroke-linecap: square"/>
    </g>
    <g id="text_21">
     <!-- Running mean, window of 15 -->
     <g transform="translate(94.6 87.426688) scale(0.1 -0.1)">
      <defs>
       <path id="DejaVuSans-52" d="M 2841 2188 
Q 3044 2119 3236 1894 
Q 3428 1669 3622 1275 
L 4263 0 
L 3584 0 
L 2988 1197 
Q 2756 1666 2539 1819 
Q 2322 1972 1947 1972 
L 1259 1972 
L 1259 0 
L 628 0 
L 628 4666 
L 2053 4666 
Q 2853 4666 3247 4331 
Q 3641 3997 3641 3322 
Q 3641 2881 3436 2590 
Q 3231 2300 2841 2188 
z
M 1259 4147 
L 1259 2491 
L 2053 2491 
Q 2509 2491 2742 2702 
Q 2975 2913 2975 3322 
Q 2975 3731 2742 3939 
Q 2509 4147 2053 4147 
L 1259 4147 
z
" transform="scale(0.015625)"/>
       <path id="DejaVuSans-2c" d="M 750 794 
L 1409 794 
L 1409 256 
L 897 -744 
L 494 -744 
L 750 256 
L 750 794 
z
" transform="scale(0.015625)"/>
       <path id="DejaVuSans-77" d="M 269 3500 
L 844 3500 
L 1563 769 
L 2278 3500 
L 2956 3500 
L 3675 769 
L 4391 3500 
L 4966 3500 
L 4050 0 
L 3372 0 
L 2619 2869 
L 1863 0 
L 1184 0 
L 269 3500 
z
" transform="scale(0.015625)"/>
       <path id="DejaVuSans-66" d="M 2375 4863 
L 2375 4384 
L 1825 4384 
Q 1516 4384 1395 4259 
Q 1275 4134 1275 3809 
L 1275 3500 
L 2222 3500 
L 2222 3053 
L 1275 3053 
L 1275 0 
L 697 0 
L 697 3053 
L 147 3053 
L 147 3500 
L 697 3500 
L 697 3744 
Q 697 4328 969 4595 
Q 1241 4863 1831 4863 
L 2375 4863 
z
" transform="scale(0.015625)"/>
      </defs>
      <use xlink:href="#DejaVuSans-52"/>
      <use xlink:href="#DejaVuSans-75" x="64.982422"/>
      <use xlink:href="#DejaVuSans-6e" x="128.361328"/>
      <use xlink:href="#DejaVuSans-6e" x="191.740234"/>
      <use xlink:href="#DejaVuSans-69" x="255.119141"/>
      <use xlink:href="#DejaVuSans-6e" x="282.902344"/>
      <use xlink:href="#DejaVuSans-67" x="346.28125"/>
      <use xlink:href="#DejaVuSans-20" x="409.757812"/>
      <use xlink:href="#DejaVuSans-6d" x="441.544922"/>
      <use xlink:href="#DejaVuSans-65" x="538.957031"/>
      <use xlink:href="#DejaVuSans-61" x="600.480469"/>
      <use xlink:href="#DejaVuSans-6e" x="661.759766"/>
      <use xlink:href="#DejaVuSans-2c" x="725.138672"/>
      <use xlink:href="#DejaVuSans-20" x="756.925781"/>
      <use xlink:href="#DejaVuSans-77" x="788.712891"/>
      <use xlink:href="#DejaVuSans-69" x="870.5"/>
      <use xlink:href="#DejaVuSans-6e" x="898.283203"/>
      <use xlink:href="#DejaVuSans-64" x="961.662109"/>
      <use xlink:href="#DejaVuSans-6f" x="1025.138672"/>
      <use xlink:href="#DejaVuSans-77" x="1086.320312"/>
      <use xlink:href="#DejaVuSans-20" x="1168.107422"/>
      <use xlink:href="#DejaVuSans-6f" x="1199.894531"/>
      <use xlink:href="#DejaVuSans-66" x="1261.076172"/>
      <use xlink:href="#DejaVuSans-20" x="1296.28125"/>
      <use xlink:href="#DejaVuSans-31" x="1328.068359"/>
      <use xlink:href="#DejaVuSans-35" x="1391.691406"/>
     </g>
    </g>
   </g>
  </g>
 </g>
 <defs>
  <clipPath id="pd033a38fae">
   <rect x="57.6" y="41.472" width="357.12" height="266.112"/>
  </clipPath>
 </defs>
</svg>
