<?xml version="1.0" encoding="utf-8" standalone="no"?>
<!DOCTYPE svg PUBLIC "-//W3C//DTD SVG 1.1//EN"
  "http://www.w3.org/Graphics/SVG/1.1/DTD/svg11.dtd">
<svg xmlns:xlink="http://www.w3.org/1999/xlink" width="460.8pt" height="345.6pt" viewBox="0 0 460.8 345.6" xmlns="http://www.w3.org/2000/svg" version="1.1">
 <metadata>
  <rdf:RDF xmlns:dc="http://purl.org/dc/elements/1.1/" xmlns:cc="http://creativecommons.org/ns#" xmlns:rdf="http://www.w3.org/1999/02/22-rdf-syntax-ns#">
   <cc:Work>
    <dc:type rdf:resource="http://purl.org/dc/dcmitype/StillImage"/>
    <dc:date>2024-06-14T21:11:43.340387</dc:date>
    <dc:format>image/svg+xml</dc:format>
    <dc:creator>
     <cc:Agent>
      <dc:title>Matplotlib v3.8.3, https://matplotlib.org/</dc:title>
     </cc:Agent>
    </dc:creator>
   </cc:Work>
  </rdf:RDF>
 </metadata>
 <defs>
  <style type="text/css">*{stroke-linejoin: round; stroke-linecap: butt}</style>
 </defs>
 <g id="figure_1">
  <g id="patch_1">
   <path d="M 0 345.6 
L 460.8 345.6 
L 460.8 0 
L 0 0 
z
" style="fill: #ffffff"/>
  </g>
  <g id="axes_1">
   <g id="LineCollection_1">
    <path d="M 412.551944 58.44214 
L 385.494205 125.462055 
" clip-path="url(#pcd68039229)" style="fill: none; stroke: #000000"/>
    <path d="M 412.551944 58.44214 
L 420.813223 238.125265 
" clip-path="url(#pcd68039229)" style="fill: none; stroke: #000000"/>
    <path d="M 412.551944 58.44214 
L 382.419939 43.930518 
" clip-path="url(#pcd68039229)" style="fill: none; stroke: #ffa500; stroke-width: 4"/>
    <path d="M 385.494205 125.462055 
L 420.813223 238.125265 
" clip-path="url(#pcd68039229)" style="fill: none; stroke: #000000"/>
    <path d="M 385.494205 125.462055 
L 383.11024 214.419821 
" clip-path="url(#pcd68039229)" style="fill: none; stroke: #000000"/>
    <path d="M 385.494205 125.462055 
L 382.419939 43.930518 
" clip-path="url(#pcd68039229)" style="fill: none; stroke: #ffa500; stroke-width: 4"/>
    <path d="M 385.494205 125.462055 
L 305.906232 101.923386 
" clip-path="url(#pcd68039229)" style="fill: none; stroke: #ffa500; stroke-width: 4"/>
    <path d="M 385.494205 125.462055 
L 287.867457 199.634041 
" clip-path="url(#pcd68039229)" style="fill: none; stroke: #ffa500; stroke-width: 4"/>
    <path d="M 420.813223 238.125265 
L 383.11024 214.419821 
" clip-path="url(#pcd68039229)" style="fill: none; stroke: #000000"/>
    <path d="M 420.813223 238.125265 
L 381.993737 261.484302 
" clip-path="url(#pcd68039229)" style="fill: none; stroke: #000000"/>
    <path d="M 420.813223 238.125265 
L 405.913991 303.458315 
" clip-path="url(#pcd68039229)" style="fill: none; stroke: #000000"/>
    <path d="M 383.11024 214.419821 
L 381.993737 261.484302 
" clip-path="url(#pcd68039229)" style="fill: none; stroke: #000000"/>
    <path d="M 383.11024 214.419821 
L 287.867457 199.634041 
" clip-path="url(#pcd68039229)" style="fill: none; stroke: #ffa500; stroke-width: 4"/>
    <path d="M 383.11024 214.419821 
L 296.815114 254.08159 
" clip-path="url(#pcd68039229)" style="fill: none; stroke: #000000"/>
    <path d="M 123.262 44.47685 
L 382.419939 43.930518 
" clip-path="url(#pcd68039229)" style="fill: none; stroke: #000000"/>
    <path d="M 123.262 44.47685 
L 71.928587 29.990083 
" clip-path="url(#pcd68039229)" style="fill: none; stroke: #000000"/>
    <path d="M 123.262 44.47685 
L 305.906232 101.923386 
" clip-path="url(#pcd68039229)" style="fill: none; stroke: #000000"/>
    <path d="M 123.262 44.47685 
L 130.092414 105.935565 
" clip-path="url(#pcd68039229)" style="fill: none; stroke: #000000"/>
    <path d="M 123.262 44.47685 
L 109.267807 60.523355 
" clip-path="url(#pcd68039229)" style="fill: none; stroke: #000000"/>
    <path d="M 382.419939 43.930518 
L 71.928587 29.990083 
" clip-path="url(#pcd68039229)" style="fill: none; stroke: #000000"/>
    <path d="M 382.419939 43.930518 
L 305.906232 101.923386 
" clip-path="url(#pcd68039229)" style="fill: none; stroke: #000000"/>
    <path d="M 71.928587 29.990083 
L 43.048618 69.198159 
" clip-path="url(#pcd68039229)" style="fill: none; stroke: #000000"/>
    <path d="M 71.928587 29.990083 
L 67.329553 46.161149 
" clip-path="url(#pcd68039229)" style="fill: none; stroke: #000000"/>
    <path d="M 71.928587 29.990083 
L 109.267807 60.523355 
" clip-path="url(#pcd68039229)" style="fill: none; stroke: #000000"/>
    <path d="M 305.906232 101.923386 
L 130.092414 105.935565 
" clip-path="url(#pcd68039229)" style="fill: none; stroke: #000000"/>
    <path d="M 305.906232 101.923386 
L 243.725191 161.289746 
" clip-path="url(#pcd68039229)" style="fill: none; stroke: #000000"/>
    <path d="M 305.906232 101.923386 
L 287.867457 199.634041 
" clip-path="url(#pcd68039229)" style="fill: none; stroke: #000000"/>
    <path d="M 43.048618 69.198159 
L 67.329553 46.161149 
" clip-path="url(#pcd68039229)" style="fill: none; stroke: #000000"/>
    <path d="M 43.048618 69.198159 
L 100.738884 94.917847 
" clip-path="url(#pcd68039229)" style="fill: none; stroke: #000000"/>
    <path d="M 43.048618 69.198159 
L 39.986777 77.772549 
" clip-path="url(#pcd68039229)" style="fill: none; stroke: #000000"/>
    <path d="M 67.329553 46.161149 
L 100.738884 94.917847 
" clip-path="url(#pcd68039229)" style="fill: none; stroke: #000000"/>
    <path d="M 67.329553 46.161149 
L 109.267807 60.523355 
" clip-path="url(#pcd68039229)" style="fill: none; stroke: #000000"/>
    <path d="M 130.092414 105.935565 
L 87.315362 185.150603 
" clip-path="url(#pcd68039229)" style="fill: none; stroke: #000000"/>
    <path d="M 130.092414 105.935565 
L 243.725191 161.289746 
" clip-path="url(#pcd68039229)" style="fill: none; stroke: #000000"/>
    <path d="M 130.092414 105.935565 
L 100.738884 94.917847 
" clip-path="url(#pcd68039229)" style="fill: none; stroke: #000000"/>
    <path d="M 130.092414 105.935565 
L 109.267807 60.523355 
" clip-path="url(#pcd68039229)" style="fill: none; stroke: #000000"/>
    <path d="M 87.315362 185.150603 
L 243.725191 161.289746 
" clip-path="url(#pcd68039229)" style="fill: none; stroke: #000000"/>
    <path d="M 87.315362 185.150603 
L 85.480754 242.85609 
" clip-path="url(#pcd68039229)" style="fill: none; stroke: #000000"/>
    <path d="M 87.315362 185.150603 
L 113.884772 265.218907 
" clip-path="url(#pcd68039229)" style="fill: none; stroke: #000000"/>
    <path d="M 87.315362 185.150603 
L 219.805904 253.012695 
" clip-path="url(#pcd68039229)" style="fill: none; stroke: #000000"/>
    <path d="M 87.315362 185.150603 
L 100.738884 94.917847 
" clip-path="url(#pcd68039229)" style="fill: none; stroke: #000000"/>
    <path d="M 87.315362 185.150603 
L 39.986777 77.772549 
" clip-path="url(#pcd68039229)" style="fill: none; stroke: #000000"/>
    <path d="M 87.315362 185.150603 
L 68.18389 220.868684 
" clip-path="url(#pcd68039229)" style="fill: none; stroke: #000000"/>
    <path d="M 87.315362 185.150603 
L 250.428416 191.379357 
" clip-path="url(#pcd68039229)" style="fill: none; stroke: #000000"/>
    <path d="M 243.725191 161.289746 
L 287.867457 199.634041 
" clip-path="url(#pcd68039229)" style="fill: none; stroke: #000000"/>
    <path d="M 243.725191 161.289746 
L 250.428416 191.379357 
" clip-path="url(#pcd68039229)" style="fill: none; stroke: #000000"/>
    <path d="M 113.884772 265.218907 
L 85.480754 242.85609 
" clip-path="url(#pcd68039229)" style="fill: none; stroke: #000000"/>
    <path d="M 113.884772 265.218907 
L 49.913052 246.780561 
" clip-path="url(#pcd68039229)" style="fill: none; stroke: #000000"/>
    <path d="M 113.884772 265.218907 
L 164.078796 312.342592 
" clip-path="url(#pcd68039229)" style="fill: none; stroke: #000000"/>
    <path d="M 113.884772 265.218907 
L 219.805904 253.012695 
" clip-path="url(#pcd68039229)" style="fill: none; stroke: #000000"/>
    <path d="M 113.884772 265.218907 
L 177.056276 299.46459 
" clip-path="url(#pcd68039229)" style="fill: none; stroke: #000000"/>
    <path d="M 113.884772 265.218907 
L 190.19076 277.644249 
" clip-path="url(#pcd68039229)" style="fill: none; stroke: #000000"/>
    <path d="M 85.480754 242.85609 
L 49.913052 246.780561 
" clip-path="url(#pcd68039229)" style="fill: none; stroke: #000000"/>
    <path d="M 85.480754 242.85609 
L 68.18389 220.868684 
" clip-path="url(#pcd68039229)" style="fill: none; stroke: #000000"/>
    <path d="M 49.913052 246.780561 
L 164.078796 312.342592 
" clip-path="url(#pcd68039229)" style="fill: none; stroke: #000000"/>
    <path d="M 49.913052 246.780561 
L 68.18389 220.868684 
" clip-path="url(#pcd68039229)" style="fill: none; stroke: #000000"/>
    <path d="M 49.913052 246.780561 
L 39.986777 77.772549 
" clip-path="url(#pcd68039229)" style="fill: none; stroke: #000000"/>
    <path d="M 164.078796 312.342592 
L 318.932561 315.609917 
" clip-path="url(#pcd68039229)" style="fill: none; stroke: #ffa500; stroke-width: 4"/>
    <path d="M 164.078796 312.342592 
L 212.788828 292.095145 
" clip-path="url(#pcd68039229)" style="fill: none; stroke: #000000"/>
    <path d="M 164.078796 312.342592 
L 177.056276 299.46459 
" clip-path="url(#pcd68039229)" style="fill: none; stroke: #000000"/>
    <path d="M 318.932561 315.609917 
L 212.788828 292.095145 
" clip-path="url(#pcd68039229)" style="fill: none; stroke: #ffa500; stroke-width: 4"/>
    <path d="M 318.932561 315.609917 
L 381.993737 261.484302 
" clip-path="url(#pcd68039229)" style="fill: none; stroke: #000000"/>
    <path d="M 318.932561 315.609917 
L 392.134107 308.849244 
" clip-path="url(#pcd68039229)" style="fill: none; stroke: #000000"/>
    <path d="M 318.932561 315.609917 
L 268.21407 289.740061 
" clip-path="url(#pcd68039229)" style="fill: none; stroke: #000000"/>
    <path d="M 318.932561 315.609917 
L 296.815114 254.08159 
" clip-path="url(#pcd68039229)" style="fill: none; stroke: #000000"/>
    <path d="M 212.788828 292.095145 
L 177.056276 299.46459 
" clip-path="url(#pcd68039229)" style="fill: none; stroke: #000000"/>
    <path d="M 212.788828 292.095145 
L 265.960754 274.745461 
" clip-path="url(#pcd68039229)" style="fill: none; stroke: #000000"/>
    <path d="M 212.788828 292.095145 
L 219.805904 253.012695 
" clip-path="url(#pcd68039229)" style="fill: none; stroke: #000000"/>
    <path d="M 212.788828 292.095145 
L 268.21407 289.740061 
" clip-path="url(#pcd68039229)" style="fill: none; stroke: #ff0000; stroke-width: 4"/>
    <path d="M 212.788828 292.095145 
L 194.044418 279.814946 
" clip-path="url(#pcd68039229)" style="fill: none; stroke: #000000"/>
    <path d="M 219.805904 253.012695 
L 265.960754 274.745461 
" clip-path="url(#pcd68039229)" style="fill: none; stroke: #000000"/>
    <path d="M 219.805904 253.012695 
L 190.19076 277.644249 
" clip-path="url(#pcd68039229)" style="fill: none; stroke: #000000"/>
    <path d="M 219.805904 253.012695 
L 194.044418 279.814946 
" clip-path="url(#pcd68039229)" style="fill: none; stroke: #000000"/>
    <path d="M 219.805904 253.012695 
L 287.867457 199.634041 
" clip-path="url(#pcd68039229)" style="fill: none; stroke: #000000"/>
    <path d="M 219.805904 253.012695 
L 250.428416 191.379357 
" clip-path="url(#pcd68039229)" style="fill: none; stroke: #000000"/>
    <path d="M 219.805904 253.012695 
L 296.815114 254.08159 
" clip-path="url(#pcd68039229)" style="fill: none; stroke: #ffa500; stroke-width: 4"/>
    <path d="M 381.993737 261.484302 
L 392.134107 308.849244 
" clip-path="url(#pcd68039229)" style="fill: none; stroke: #000000"/>
    <path d="M 381.993737 261.484302 
L 405.913991 303.458315 
" clip-path="url(#pcd68039229)" style="fill: none; stroke: #000000"/>
    <path d="M 381.993737 261.484302 
L 296.815114 254.08159 
" clip-path="url(#pcd68039229)" style="fill: none; stroke: #000000"/>
    <path d="M 392.134107 308.849244 
L 405.913991 303.458315 
" clip-path="url(#pcd68039229)" style="fill: none; stroke: #000000"/>
    <path d="M 100.738884 94.917847 
L 39.986777 77.772549 
" clip-path="url(#pcd68039229)" style="fill: none; stroke: #000000"/>
    <path d="M 100.738884 94.917847 
L 109.267807 60.523355 
" clip-path="url(#pcd68039229)" style="fill: none; stroke: #000000"/>
    <path d="M 39.986777 77.772549 
L 68.18389 220.868684 
" clip-path="url(#pcd68039229)" style="fill: none; stroke: #000000"/>
    <path d="M 177.056276 299.46459 
L 190.19076 277.644249 
" clip-path="url(#pcd68039229)" style="fill: none; stroke: #000000"/>
    <path d="M 177.056276 299.46459 
L 194.044418 279.814946 
" clip-path="url(#pcd68039229)" style="fill: none; stroke: #000000"/>
    <path d="M 265.960754 274.745461 
L 268.21407 289.740061 
" clip-path="url(#pcd68039229)" style="fill: none; stroke: #ffa500; stroke-width: 4"/>
    <path d="M 265.960754 274.745461 
L 296.815114 254.08159 
" clip-path="url(#pcd68039229)" style="fill: none; stroke: #ffa500; stroke-width: 4"/>
    <path d="M 190.19076 277.644249 
L 194.044418 279.814946 
" clip-path="url(#pcd68039229)" style="fill: none; stroke: #000000"/>
    <path d="M 268.21407 289.740061 
L 296.815114 254.08159 
" clip-path="url(#pcd68039229)" style="fill: none; stroke: #000000"/>
    <path d="M 287.867457 199.634041 
L 250.428416 191.379357 
" clip-path="url(#pcd68039229)" style="fill: none; stroke: #000000"/>
    <path d="M 287.867457 199.634041 
L 296.815114 254.08159 
" clip-path="url(#pcd68039229)" style="fill: none; stroke: #ffa500; stroke-width: 4"/>
   </g>
   <g id="PathCollection_1">
    <path d="M 412.551944 58.44214 
C 412.551944 58.44214 412.551944 58.44214 412.551944 58.44214 
C 412.551944 58.44214 412.551944 58.44214 412.551944 58.44214 
C 412.551944 58.44214 412.551944 58.44214 412.551944 58.44214 
C 412.551944 58.44214 412.551944 58.44214 412.551944 58.44214 
C 412.551944 58.44214 412.551944 58.44214 412.551944 58.44214 
C 412.551944 58.44214 412.551944 58.44214 412.551944 58.44214 
C 412.551944 58.44214 412.551944 58.44214 412.551944 58.44214 
C 412.551944 58.44214 412.551944 58.44214 412.551944 58.44214 
z
" clip-path="url(#pcd68039229)" style="fill: #1f78b4; stroke: #1f78b4"/>
    <path d="M 385.494205 130.462055 
C 386.82022 130.462055 388.092104 129.935223 389.029739 128.997589 
C 389.967373 128.059954 390.494205 126.78807 390.494205 125.462055 
C 390.494205 124.136039 389.967373 122.864156 389.029739 121.926521 
C 388.092104 120.988886 386.82022 120.462055 385.494205 120.462055 
C 384.168189 120.462055 382.896305 120.988886 381.958671 121.926521 
C 381.021036 122.864156 380.494205 124.136039 380.494205 125.462055 
C 380.494205 126.78807 381.021036 128.059954 381.958671 128.997589 
C 382.896305 129.935223 384.168189 130.462055 385.494205 130.462055 
z
" clip-path="url(#pcd68039229)" style="fill: #1f78b4; stroke: #1f78b4"/>
    <path d="M 420.813223 238.125265 
C 420.813223 238.125265 420.813223 238.125265 420.813223 238.125265 
C 420.813223 238.125265 420.813223 238.125265 420.813223 238.125265 
C 420.813223 238.125265 420.813223 238.125265 420.813223 238.125265 
C 420.813223 238.125265 420.813223 238.125265 420.813223 238.125265 
C 420.813223 238.125265 420.813223 238.125265 420.813223 238.125265 
C 420.813223 238.125265 420.813223 238.125265 420.813223 238.125265 
C 420.813223 238.125265 420.813223 238.125265 420.813223 238.125265 
C 420.813223 238.125265 420.813223 238.125265 420.813223 238.125265 
z
" clip-path="url(#pcd68039229)" style="fill: #1f78b4; stroke: #1f78b4"/>
    <path d="M 383.11024 214.419821 
C 383.11024 214.419821 383.11024 214.419821 383.11024 214.419821 
C 383.11024 214.419821 383.11024 214.419821 383.11024 214.419821 
C 383.11024 214.419821 383.11024 214.419821 383.11024 214.419821 
C 383.11024 214.419821 383.11024 214.419821 383.11024 214.419821 
C 383.11024 214.419821 383.11024 214.419821 383.11024 214.419821 
C 383.11024 214.419821 383.11024 214.419821 383.11024 214.419821 
C 383.11024 214.419821 383.11024 214.419821 383.11024 214.419821 
C 383.11024 214.419821 383.11024 214.419821 383.11024 214.419821 
z
" clip-path="url(#pcd68039229)" style="fill: #1f78b4; stroke: #1f78b4"/>
    <path d="M 123.262 44.47685 
C 123.262 44.47685 123.262 44.47685 123.262 44.47685 
C 123.262 44.47685 123.262 44.47685 123.262 44.47685 
C 123.262 44.47685 123.262 44.47685 123.262 44.47685 
C 123.262 44.47685 123.262 44.47685 123.262 44.47685 
C 123.262 44.47685 123.262 44.47685 123.262 44.47685 
C 123.262 44.47685 123.262 44.47685 123.262 44.47685 
C 123.262 44.47685 123.262 44.47685 123.262 44.47685 
C 123.262 44.47685 123.262 44.47685 123.262 44.47685 
z
" clip-path="url(#pcd68039229)" style="fill: #1f78b4; stroke: #1f78b4"/>
    <path d="M 382.419939 43.930518 
C 382.419939 43.930518 382.419939 43.930518 382.419939 43.930518 
C 382.419939 43.930518 382.419939 43.930518 382.419939 43.930518 
C 382.419939 43.930518 382.419939 43.930518 382.419939 43.930518 
C 382.419939 43.930518 382.419939 43.930518 382.419939 43.930518 
C 382.419939 43.930518 382.419939 43.930518 382.419939 43.930518 
C 382.419939 43.930518 382.419939 43.930518 382.419939 43.930518 
C 382.419939 43.930518 382.419939 43.930518 382.419939 43.930518 
C 382.419939 43.930518 382.419939 43.930518 382.419939 43.930518 
z
" clip-path="url(#pcd68039229)" style="fill: #1f78b4; stroke: #1f78b4"/>
    <path d="M 71.928587 29.990083 
C 71.928587 29.990083 71.928587 29.990083 71.928587 29.990083 
C 71.928587 29.990083 71.928587 29.990083 71.928587 29.990083 
C 71.928587 29.990083 71.928587 29.990083 71.928587 29.990083 
C 71.928587 29.990083 71.928587 29.990083 71.928587 29.990083 
C 71.928587 29.990083 71.928587 29.990083 71.928587 29.990083 
C 71.928587 29.990083 71.928587 29.990083 71.928587 29.990083 
C 71.928587 29.990083 71.928587 29.990083 71.928587 29.990083 
C 71.928587 29.990083 71.928587 29.990083 71.928587 29.990083 
z
" clip-path="url(#pcd68039229)" style="fill: #1f78b4; stroke: #1f78b4"/>
    <path d="M 305.906232 101.923386 
C 305.906232 101.923386 305.906232 101.923386 305.906232 101.923386 
C 305.906232 101.923386 305.906232 101.923386 305.906232 101.923386 
C 305.906232 101.923386 305.906232 101.923386 305.906232 101.923386 
C 305.906232 101.923386 305.906232 101.923386 305.906232 101.923386 
C 305.906232 101.923386 305.906232 101.923386 305.906232 101.923386 
C 305.906232 101.923386 305.906232 101.923386 305.906232 101.923386 
C 305.906232 101.923386 305.906232 101.923386 305.906232 101.923386 
C 305.906232 101.923386 305.906232 101.923386 305.906232 101.923386 
z
" clip-path="url(#pcd68039229)" style="fill: #1f78b4; stroke: #1f78b4"/>
    <path d="M 43.048618 69.198159 
C 43.048618 69.198159 43.048618 69.198159 43.048618 69.198159 
C 43.048618 69.198159 43.048618 69.198159 43.048618 69.198159 
C 43.048618 69.198159 43.048618 69.198159 43.048618 69.198159 
C 43.048618 69.198159 43.048618 69.198159 43.048618 69.198159 
C 43.048618 69.198159 43.048618 69.198159 43.048618 69.198159 
C 43.048618 69.198159 43.048618 69.198159 43.048618 69.198159 
C 43.048618 69.198159 43.048618 69.198159 43.048618 69.198159 
C 43.048618 69.198159 43.048618 69.198159 43.048618 69.198159 
z
" clip-path="url(#pcd68039229)" style="fill: #1f78b4; stroke: #1f78b4"/>
    <path d="M 67.329553 46.161149 
C 67.329553 46.161149 67.329553 46.161149 67.329553 46.161149 
C 67.329553 46.161149 67.329553 46.161149 67.329553 46.161149 
C 67.329553 46.161149 67.329553 46.161149 67.329553 46.161149 
C 67.329553 46.161149 67.329553 46.161149 67.329553 46.161149 
C 67.329553 46.161149 67.329553 46.161149 67.329553 46.161149 
C 67.329553 46.161149 67.329553 46.161149 67.329553 46.161149 
C 67.329553 46.161149 67.329553 46.161149 67.329553 46.161149 
C 67.329553 46.161149 67.329553 46.161149 67.329553 46.161149 
z
" clip-path="url(#pcd68039229)" style="fill: #1f78b4; stroke: #1f78b4"/>
    <path d="M 130.092414 105.935565 
C 130.092414 105.935565 130.092414 105.935565 130.092414 105.935565 
C 130.092414 105.935565 130.092414 105.935565 130.092414 105.935565 
C 130.092414 105.935565 130.092414 105.935565 130.092414 105.935565 
C 130.092414 105.935565 130.092414 105.935565 130.092414 105.935565 
C 130.092414 105.935565 130.092414 105.935565 130.092414 105.935565 
C 130.092414 105.935565 130.092414 105.935565 130.092414 105.935565 
C 130.092414 105.935565 130.092414 105.935565 130.092414 105.935565 
C 130.092414 105.935565 130.092414 105.935565 130.092414 105.935565 
z
" clip-path="url(#pcd68039229)" style="fill: #1f78b4; stroke: #1f78b4"/>
    <path d="M 87.315362 185.150603 
C 87.315362 185.150603 87.315362 185.150603 87.315362 185.150603 
C 87.315362 185.150603 87.315362 185.150603 87.315362 185.150603 
C 87.315362 185.150603 87.315362 185.150603 87.315362 185.150603 
C 87.315362 185.150603 87.315362 185.150603 87.315362 185.150603 
C 87.315362 185.150603 87.315362 185.150603 87.315362 185.150603 
C 87.315362 185.150603 87.315362 185.150603 87.315362 185.150603 
C 87.315362 185.150603 87.315362 185.150603 87.315362 185.150603 
C 87.315362 185.150603 87.315362 185.150603 87.315362 185.150603 
z
" clip-path="url(#pcd68039229)" style="fill: #1f78b4; stroke: #1f78b4"/>
    <path d="M 243.725191 161.289746 
C 243.725191 161.289746 243.725191 161.289746 243.725191 161.289746 
C 243.725191 161.289746 243.725191 161.289746 243.725191 161.289746 
C 243.725191 161.289746 243.725191 161.289746 243.725191 161.289746 
C 243.725191 161.289746 243.725191 161.289746 243.725191 161.289746 
C 243.725191 161.289746 243.725191 161.289746 243.725191 161.289746 
C 243.725191 161.289746 243.725191 161.289746 243.725191 161.289746 
C 243.725191 161.289746 243.725191 161.289746 243.725191 161.289746 
C 243.725191 161.289746 243.725191 161.289746 243.725191 161.289746 
z
" clip-path="url(#pcd68039229)" style="fill: #1f78b4; stroke: #1f78b4"/>
    <path d="M 113.884772 265.218907 
C 113.884772 265.218907 113.884772 265.218907 113.884772 265.218907 
C 113.884772 265.218907 113.884772 265.218907 113.884772 265.218907 
C 113.884772 265.218907 113.884772 265.218907 113.884772 265.218907 
C 113.884772 265.218907 113.884772 265.218907 113.884772 265.218907 
C 113.884772 265.218907 113.884772 265.218907 113.884772 265.218907 
C 113.884772 265.218907 113.884772 265.218907 113.884772 265.218907 
C 113.884772 265.218907 113.884772 265.218907 113.884772 265.218907 
C 113.884772 265.218907 113.884772 265.218907 113.884772 265.218907 
z
" clip-path="url(#pcd68039229)" style="fill: #1f78b4; stroke: #1f78b4"/>
    <path d="M 85.480754 242.85609 
C 85.480754 242.85609 85.480754 242.85609 85.480754 242.85609 
C 85.480754 242.85609 85.480754 242.85609 85.480754 242.85609 
C 85.480754 242.85609 85.480754 242.85609 85.480754 242.85609 
C 85.480754 242.85609 85.480754 242.85609 85.480754 242.85609 
C 85.480754 242.85609 85.480754 242.85609 85.480754 242.85609 
C 85.480754 242.85609 85.480754 242.85609 85.480754 242.85609 
C 85.480754 242.85609 85.480754 242.85609 85.480754 242.85609 
C 85.480754 242.85609 85.480754 242.85609 85.480754 242.85609 
z
" clip-path="url(#pcd68039229)" style="fill: #1f78b4; stroke: #1f78b4"/>
    <path d="M 49.913052 246.780561 
C 49.913052 246.780561 49.913052 246.780561 49.913052 246.780561 
C 49.913052 246.780561 49.913052 246.780561 49.913052 246.780561 
C 49.913052 246.780561 49.913052 246.780561 49.913052 246.780561 
C 49.913052 246.780561 49.913052 246.780561 49.913052 246.780561 
C 49.913052 246.780561 49.913052 246.780561 49.913052 246.780561 
C 49.913052 246.780561 49.913052 246.780561 49.913052 246.780561 
C 49.913052 246.780561 49.913052 246.780561 49.913052 246.780561 
C 49.913052 246.780561 49.913052 246.780561 49.913052 246.780561 
z
" clip-path="url(#pcd68039229)" style="fill: #1f78b4; stroke: #1f78b4"/>
    <path d="M 164.078796 312.342592 
C 164.078796 312.342592 164.078796 312.342592 164.078796 312.342592 
C 164.078796 312.342592 164.078796 312.342592 164.078796 312.342592 
C 164.078796 312.342592 164.078796 312.342592 164.078796 312.342592 
C 164.078796 312.342592 164.078796 312.342592 164.078796 312.342592 
C 164.078796 312.342592 164.078796 312.342592 164.078796 312.342592 
C 164.078796 312.342592 164.078796 312.342592 164.078796 312.342592 
C 164.078796 312.342592 164.078796 312.342592 164.078796 312.342592 
C 164.078796 312.342592 164.078796 312.342592 164.078796 312.342592 
z
" clip-path="url(#pcd68039229)" style="fill: #1f78b4; stroke: #1f78b4"/>
    <path d="M 318.932561 315.609917 
C 318.932561 315.609917 318.932561 315.609917 318.932561 315.609917 
C 318.932561 315.609917 318.932561 315.609917 318.932561 315.609917 
C 318.932561 315.609917 318.932561 315.609917 318.932561 315.609917 
C 318.932561 315.609917 318.932561 315.609917 318.932561 315.609917 
C 318.932561 315.609917 318.932561 315.609917 318.932561 315.609917 
C 318.932561 315.609917 318.932561 315.609917 318.932561 315.609917 
C 318.932561 315.609917 318.932561 315.609917 318.932561 315.609917 
C 318.932561 315.609917 318.932561 315.609917 318.932561 315.609917 
z
" clip-path="url(#pcd68039229)" style="fill: #1f78b4; stroke: #1f78b4"/>
    <path d="M 212.788828 292.095145 
C 212.788828 292.095145 212.788828 292.095145 212.788828 292.095145 
C 212.788828 292.095145 212.788828 292.095145 212.788828 292.095145 
C 212.788828 292.095145 212.788828 292.095145 212.788828 292.095145 
C 212.788828 292.095145 212.788828 292.095145 212.788828 292.095145 
C 212.788828 292.095145 212.788828 292.095145 212.788828 292.095145 
C 212.788828 292.095145 212.788828 292.095145 212.788828 292.095145 
C 212.788828 292.095145 212.788828 292.095145 212.788828 292.095145 
C 212.788828 292.095145 212.788828 292.095145 212.788828 292.095145 
z
" clip-path="url(#pcd68039229)" style="fill: #1f78b4; stroke: #1f78b4"/>
    <path d="M 219.805904 253.012695 
C 219.805904 253.012695 219.805904 253.012695 219.805904 253.012695 
C 219.805904 253.012695 219.805904 253.012695 219.805904 253.012695 
C 219.805904 253.012695 219.805904 253.012695 219.805904 253.012695 
C 219.805904 253.012695 219.805904 253.012695 219.805904 253.012695 
C 219.805904 253.012695 219.805904 253.012695 219.805904 253.012695 
C 219.805904 253.012695 219.805904 253.012695 219.805904 253.012695 
C 219.805904 253.012695 219.805904 253.012695 219.805904 253.012695 
C 219.805904 253.012695 219.805904 253.012695 219.805904 253.012695 
z
" clip-path="url(#pcd68039229)" style="fill: #1f78b4; stroke: #1f78b4"/>
    <path d="M 381.993737 261.484302 
C 381.993737 261.484302 381.993737 261.484302 381.993737 261.484302 
C 381.993737 261.484302 381.993737 261.484302 381.993737 261.484302 
C 381.993737 261.484302 381.993737 261.484302 381.993737 261.484302 
C 381.993737 261.484302 381.993737 261.484302 381.993737 261.484302 
C 381.993737 261.484302 381.993737 261.484302 381.993737 261.484302 
C 381.993737 261.484302 381.993737 261.484302 381.993737 261.484302 
C 381.993737 261.484302 381.993737 261.484302 381.993737 261.484302 
C 381.993737 261.484302 381.993737 261.484302 381.993737 261.484302 
z
" clip-path="url(#pcd68039229)" style="fill: #1f78b4; stroke: #1f78b4"/>
    <path d="M 392.134107 308.849244 
C 392.134107 308.849244 392.134107 308.849244 392.134107 308.849244 
C 392.134107 308.849244 392.134107 308.849244 392.134107 308.849244 
C 392.134107 308.849244 392.134107 308.849244 392.134107 308.849244 
C 392.134107 308.849244 392.134107 308.849244 392.134107 308.849244 
C 392.134107 308.849244 392.134107 308.849244 392.134107 308.849244 
C 392.134107 308.849244 392.134107 308.849244 392.134107 308.849244 
C 392.134107 308.849244 392.134107 308.849244 392.134107 308.849244 
C 392.134107 308.849244 392.134107 308.849244 392.134107 308.849244 
z
" clip-path="url(#pcd68039229)" style="fill: #1f78b4; stroke: #1f78b4"/>
    <path d="M 405.913991 303.458315 
C 405.913991 303.458315 405.913991 303.458315 405.913991 303.458315 
C 405.913991 303.458315 405.913991 303.458315 405.913991 303.458315 
C 405.913991 303.458315 405.913991 303.458315 405.913991 303.458315 
C 405.913991 303.458315 405.913991 303.458315 405.913991 303.458315 
C 405.913991 303.458315 405.913991 303.458315 405.913991 303.458315 
C 405.913991 303.458315 405.913991 303.458315 405.913991 303.458315 
C 405.913991 303.458315 405.913991 303.458315 405.913991 303.458315 
C 405.913991 303.458315 405.913991 303.458315 405.913991 303.458315 
z
" clip-path="url(#pcd68039229)" style="fill: #1f78b4; stroke: #1f78b4"/>
    <path d="M 100.738884 94.917847 
C 100.738884 94.917847 100.738884 94.917847 100.738884 94.917847 
C 100.738884 94.917847 100.738884 94.917847 100.738884 94.917847 
C 100.738884 94.917847 100.738884 94.917847 100.738884 94.917847 
C 100.738884 94.917847 100.738884 94.917847 100.738884 94.917847 
C 100.738884 94.917847 100.738884 94.917847 100.738884 94.917847 
C 100.738884 94.917847 100.738884 94.917847 100.738884 94.917847 
C 100.738884 94.917847 100.738884 94.917847 100.738884 94.917847 
C 100.738884 94.917847 100.738884 94.917847 100.738884 94.917847 
z
" clip-path="url(#pcd68039229)" style="fill: #1f78b4; stroke: #1f78b4"/>
    <path d="M 39.986777 77.772549 
C 39.986777 77.772549 39.986777 77.772549 39.986777 77.772549 
C 39.986777 77.772549 39.986777 77.772549 39.986777 77.772549 
C 39.986777 77.772549 39.986777 77.772549 39.986777 77.772549 
C 39.986777 77.772549 39.986777 77.772549 39.986777 77.772549 
C 39.986777 77.772549 39.986777 77.772549 39.986777 77.772549 
C 39.986777 77.772549 39.986777 77.772549 39.986777 77.772549 
C 39.986777 77.772549 39.986777 77.772549 39.986777 77.772549 
C 39.986777 77.772549 39.986777 77.772549 39.986777 77.772549 
z
" clip-path="url(#pcd68039229)" style="fill: #1f78b4; stroke: #1f78b4"/>
    <path d="M 68.18389 225.868684 
C 69.509906 225.868684 70.78179 225.341852 71.719424 224.404218 
C 72.657059 223.466583 73.18389 222.194699 73.18389 220.868684 
C 73.18389 219.542668 72.657059 218.270785 71.719424 217.33315 
C 70.78179 216.395515 69.509906 215.868684 68.18389 215.868684 
C 66.857875 215.868684 65.585991 216.395515 64.648357 217.33315 
C 63.710722 218.270785 63.18389 219.542668 63.18389 220.868684 
C 63.18389 222.194699 63.710722 223.466583 64.648357 224.404218 
C 65.585991 225.341852 66.857875 225.868684 68.18389 225.868684 
z
" clip-path="url(#pcd68039229)" style="fill: #1f78b4; stroke: #1f78b4"/>
    <path d="M 177.056276 299.46459 
C 177.056276 299.46459 177.056276 299.46459 177.056276 299.46459 
C 177.056276 299.46459 177.056276 299.46459 177.056276 299.46459 
C 177.056276 299.46459 177.056276 299.46459 177.056276 299.46459 
C 177.056276 299.46459 177.056276 299.46459 177.056276 299.46459 
C 177.056276 299.46459 177.056276 299.46459 177.056276 299.46459 
C 177.056276 299.46459 177.056276 299.46459 177.056276 299.46459 
C 177.056276 299.46459 177.056276 299.46459 177.056276 299.46459 
C 177.056276 299.46459 177.056276 299.46459 177.056276 299.46459 
z
" clip-path="url(#pcd68039229)" style="fill: #1f78b4; stroke: #1f78b4"/>
    <path d="M 265.960754 274.745461 
C 265.960754 274.745461 265.960754 274.745461 265.960754 274.745461 
C 265.960754 274.745461 265.960754 274.745461 265.960754 274.745461 
C 265.960754 274.745461 265.960754 274.745461 265.960754 274.745461 
C 265.960754 274.745461 265.960754 274.745461 265.960754 274.745461 
C 265.960754 274.745461 265.960754 274.745461 265.960754 274.745461 
C 265.960754 274.745461 265.960754 274.745461 265.960754 274.745461 
C 265.960754 274.745461 265.960754 274.745461 265.960754 274.745461 
C 265.960754 274.745461 265.960754 274.745461 265.960754 274.745461 
z
" clip-path="url(#pcd68039229)" style="fill: #1f78b4; stroke: #1f78b4"/>
    <path d="M 109.267807 60.523355 
C 109.267807 60.523355 109.267807 60.523355 109.267807 60.523355 
C 109.267807 60.523355 109.267807 60.523355 109.267807 60.523355 
C 109.267807 60.523355 109.267807 60.523355 109.267807 60.523355 
C 109.267807 60.523355 109.267807 60.523355 109.267807 60.523355 
C 109.267807 60.523355 109.267807 60.523355 109.267807 60.523355 
C 109.267807 60.523355 109.267807 60.523355 109.267807 60.523355 
C 109.267807 60.523355 109.267807 60.523355 109.267807 60.523355 
C 109.267807 60.523355 109.267807 60.523355 109.267807 60.523355 
z
" clip-path="url(#pcd68039229)" style="fill: #1f78b4; stroke: #1f78b4"/>
    <path d="M 190.19076 277.644249 
C 190.19076 277.644249 190.19076 277.644249 190.19076 277.644249 
C 190.19076 277.644249 190.19076 277.644249 190.19076 277.644249 
C 190.19076 277.644249 190.19076 277.644249 190.19076 277.644249 
C 190.19076 277.644249 190.19076 277.644249 190.19076 277.644249 
C 190.19076 277.644249 190.19076 277.644249 190.19076 277.644249 
C 190.19076 277.644249 190.19076 277.644249 190.19076 277.644249 
C 190.19076 277.644249 190.19076 277.644249 190.19076 277.644249 
C 190.19076 277.644249 190.19076 277.644249 190.19076 277.644249 
z
" clip-path="url(#pcd68039229)" style="fill: #1f78b4; stroke: #1f78b4"/>
    <path d="M 268.21407 289.740061 
C 268.21407 289.740061 268.21407 289.740061 268.21407 289.740061 
C 268.21407 289.740061 268.21407 289.740061 268.21407 289.740061 
C 268.21407 289.740061 268.21407 289.740061 268.21407 289.740061 
C 268.21407 289.740061 268.21407 289.740061 268.21407 289.740061 
C 268.21407 289.740061 268.21407 289.740061 268.21407 289.740061 
C 268.21407 289.740061 268.21407 289.740061 268.21407 289.740061 
C 268.21407 289.740061 268.21407 289.740061 268.21407 289.740061 
C 268.21407 289.740061 268.21407 289.740061 268.21407 289.740061 
z
" clip-path="url(#pcd68039229)" style="fill: #1f78b4; stroke: #1f78b4"/>
    <path d="M 287.867457 199.634041 
C 287.867457 199.634041 287.867457 199.634041 287.867457 199.634041 
C 287.867457 199.634041 287.867457 199.634041 287.867457 199.634041 
C 287.867457 199.634041 287.867457 199.634041 287.867457 199.634041 
C 287.867457 199.634041 287.867457 199.634041 287.867457 199.634041 
C 287.867457 199.634041 287.867457 199.634041 287.867457 199.634041 
C 287.867457 199.634041 287.867457 199.634041 287.867457 199.634041 
C 287.867457 199.634041 287.867457 199.634041 287.867457 199.634041 
C 287.867457 199.634041 287.867457 199.634041 287.867457 199.634041 
z
" clip-path="url(#pcd68039229)" style="fill: #1f78b4; stroke: #1f78b4"/>
    <path d="M 194.044418 279.814946 
C 194.044418 279.814946 194.044418 279.814946 194.044418 279.814946 
C 194.044418 279.814946 194.044418 279.814946 194.044418 279.814946 
C 194.044418 279.814946 194.044418 279.814946 194.044418 279.814946 
C 194.044418 279.814946 194.044418 279.814946 194.044418 279.814946 
C 194.044418 279.814946 194.044418 279.814946 194.044418 279.814946 
C 194.044418 279.814946 194.044418 279.814946 194.044418 279.814946 
C 194.044418 279.814946 194.044418 279.814946 194.044418 279.814946 
C 194.044418 279.814946 194.044418 279.814946 194.044418 279.814946 
z
" clip-path="url(#pcd68039229)" style="fill: #1f78b4; stroke: #1f78b4"/>
    <path d="M 250.428416 191.379357 
C 250.428416 191.379357 250.428416 191.379357 250.428416 191.379357 
C 250.428416 191.379357 250.428416 191.379357 250.428416 191.379357 
C 250.428416 191.379357 250.428416 191.379357 250.428416 191.379357 
C 250.428416 191.379357 250.428416 191.379357 250.428416 191.379357 
C 250.428416 191.379357 250.428416 191.379357 250.428416 191.379357 
C 250.428416 191.379357 250.428416 191.379357 250.428416 191.379357 
C 250.428416 191.379357 250.428416 191.379357 250.428416 191.379357 
C 250.428416 191.379357 250.428416 191.379357 250.428416 191.379357 
z
" clip-path="url(#pcd68039229)" style="fill: #1f78b4; stroke: #1f78b4"/>
    <path d="M 296.815114 254.08159 
C 296.815114 254.08159 296.815114 254.08159 296.815114 254.08159 
C 296.815114 254.08159 296.815114 254.08159 296.815114 254.08159 
C 296.815114 254.08159 296.815114 254.08159 296.815114 254.08159 
C 296.815114 254.08159 296.815114 254.08159 296.815114 254.08159 
C 296.815114 254.08159 296.815114 254.08159 296.815114 254.08159 
C 296.815114 254.08159 296.815114 254.08159 296.815114 254.08159 
C 296.815114 254.08159 296.815114 254.08159 296.815114 254.08159 
C 296.815114 254.08159 296.815114 254.08159 296.815114 254.08159 
z
" clip-path="url(#pcd68039229)" style="fill: #1f78b4; stroke: #1f78b4"/>
   </g>
  </g>
 </g>
 <defs>
  <clipPath id="pcd68039229">
   <rect x="0" y="0" width="460.8" height="345.6"/>
  </clipPath>
 </defs>
</svg>
